<svg width="24" height="24" viewBox="0 0 24 24" fill="none" xmlns="http://www.w3.org/2000/svg">
<path d="M11.9999 2.40002C14.546 2.40002 16.9878 3.41145 18.7881 5.2118C20.5885 7.01215 21.5999 9.45395 21.5999 12C21.5999 14.5461 20.5885 16.9879 18.7881 18.7882C16.9878 20.5886 14.546 21.6 11.9999 21.6C9.45382 21.6 7.01203 20.5886 5.21168 18.7882C3.41133 16.9879 2.3999 14.5461 2.3999 12C2.3999 9.45395 3.41133 7.01215 5.21168 5.2118C7.01203 3.41145 9.45382 2.40002 11.9999 2.40002ZM11.9999 3.60002C10.8968 3.60002 9.8045 3.8173 8.78536 4.23944C7.76623 4.66158 6.84022 5.28031 6.0602 6.06033C5.28019 6.84034 4.66145 7.76635 4.23931 8.78548C3.81717 9.80462 3.5999 10.8969 3.5999 12C3.5999 13.1031 3.81717 14.1954 4.23931 15.2146C4.66145 16.2337 5.28019 17.1597 6.0602 17.9397C6.84022 18.7197 7.76623 19.3385 8.78536 19.7606C9.8045 20.1828 10.8968 20.4 11.9999 20.4C14.2277 20.4 16.3643 19.515 17.9396 17.9397C19.5149 16.3644 20.3999 14.2278 20.3999 12C20.3999 9.77221 19.5149 7.63563 17.9396 6.06033C16.3643 4.48502 14.2277 3.60002 11.9999 3.60002ZM8.5859 14.9124C9.45328 15.7857 10.6222 16.2935 11.8525 16.3314C13.0827 16.3694 14.2808 15.9346 15.2003 15.1164L15.4139 14.9124C15.5193 14.8053 15.6611 14.7416 15.8112 14.734C15.9614 14.7264 16.1089 14.7754 16.2246 14.8714C16.3403 14.9673 16.4157 15.1032 16.4361 15.2521C16.4564 15.4011 16.4201 15.5522 16.3343 15.6756L16.2659 15.7596L16.2383 15.786C15.6781 16.3427 15.0138 16.7835 14.2832 17.0834C13.5526 17.3832 12.7701 17.5363 11.9804 17.5337C11.1907 17.5311 10.4092 17.373 9.68057 17.0684C8.95195 16.7638 8.29047 16.3187 7.7339 15.7584C7.62172 15.6454 7.55901 15.4925 7.55957 15.3333C7.56013 15.1741 7.62392 15.0216 7.7369 14.9094C7.84988 14.7972 8.00281 14.7345 8.16202 14.7351C8.32124 14.7357 8.47372 14.7994 8.5859 14.9124ZM14.9999 9.00002C15.3182 9.00002 15.6234 9.12645 15.8484 9.3515C16.0735 9.57654 16.1999 9.88176 16.1999 10.2C16.1999 10.5183 16.0735 10.8235 15.8484 11.0486C15.6234 11.2736 15.3182 11.4 14.9999 11.4C14.6816 11.4 14.3764 11.2736 14.1514 11.0486C13.9263 10.8235 13.7999 10.5183 13.7999 10.2C13.7999 9.88176 13.9263 9.57654 14.1514 9.3515C14.3764 9.12645 14.6816 9.00002 14.9999 9.00002ZM8.9999 9.00002C9.31816 9.00002 9.62339 9.12645 9.84843 9.3515C10.0735 9.57654 10.1999 9.88176 10.1999 10.2C10.1999 10.5183 10.0735 10.8235 9.84843 11.0486C9.62339 11.2736 9.31816 11.4 8.9999 11.4C8.68164 11.4 8.37642 11.2736 8.15137 11.0486C7.92633 10.8235 7.7999 10.5183 7.7999 10.2C7.7999 9.88176 7.92633 9.57654 8.15137 9.3515C8.37642 9.12645 8.68164 9.00002 8.9999 9.00002Z" fill="#606060"/>
</svg>
