<svg width="136" height="137" viewBox="0 0 136 137" fill="none" xmlns="http://www.w3.org/2000/svg">
<g clip-path="url(#clip0)">
<path d="M27.1977 49.4637C25.3549 50.7976 23.1954 51.6457 20.9246 51.9274C17.3326 52.5498 14.4154 52.177 12.1731 50.809C9.9308 49.441 8.50352 47.0509 7.89125 43.6386L6.73464 37.1927L3.22063 37.8016L1.86161 30.2276L5.37562 29.6187L4.10885 22.5588L14.6977 20.724L15.9645 27.7839L21.2121 26.8746L22.5752 34.4716L17.3276 35.3809L18.4677 41.7348C18.545 42.395 18.8786 43.0005 19.399 43.4249C19.636 43.6 19.9079 43.7238 20.197 43.7883C20.4861 43.8527 20.7858 43.8563 21.0765 43.7989C21.9292 43.668 22.7202 43.2823 23.3421 42.6942L27.1977 49.4637Z" fill="#15076F"/>
<path d="M51.3457 22.6343C53.6026 24.1739 55.068 26.8211 55.7418 30.5762L58.3249 44.9721L47.736 46.8069L45.4806 34.2373C44.9629 31.352 43.6628 30.0897 41.5805 30.4505C41.0349 30.5259 40.5132 30.7192 40.0528 31.0165C39.5924 31.3139 39.2048 31.7078 38.9179 32.17C38.3298 33.1106 38.1923 34.4531 38.5053 36.1976L40.6299 48.0382L30.0254 49.8757L23.8954 15.7122L34.4842 13.8774L36.4588 24.8815C38.1702 22.8597 40.5805 21.5292 43.228 21.145C44.6133 20.8411 46.0469 20.8164 47.4421 21.0724C48.8374 21.3284 50.1653 21.8597 51.3457 22.6343Z" fill="#15076F"/>
<path d="M88.6871 29.219L70.8828 32.304C71.3959 33.1642 72.1971 33.8225 73.1494 34.1663C74.2497 34.533 75.4301 34.6017 76.5668 34.3654C77.5335 34.2235 78.4676 33.9171 79.3271 33.4598C80.1658 32.9506 80.924 32.3234 81.5777 31.5982L88.0895 36.1192C86.0753 39.2534 82.585 41.2508 77.6185 42.1113C74.8156 42.6552 71.9232 42.5609 69.1631 41.8357C66.7435 41.2086 64.5562 39.9159 62.8583 38.1096C61.2471 36.2931 60.1707 34.0791 59.7449 31.706C59.3191 29.3329 59.56 26.8906 60.4418 24.6421C61.359 22.4477 62.8723 20.5432 64.8164 19.1367C66.8878 17.6775 69.2602 16.6833 71.7658 16.2245C74.2714 15.7658 76.849 15.8536 79.3162 16.4818C81.5931 17.0969 83.6433 18.3396 85.2246 20.0631C86.9133 21.9565 88.011 24.2881 88.3862 26.7787C88.4161 26.916 88.5165 27.7294 88.6871 29.219ZM70.7599 24.6187C70.123 25.3893 69.7832 26.356 69.8004 27.3486L78.0466 25.9197C77.7078 24.9936 77.0556 24.2099 76.199 23.7C75.3245 23.2178 74.3008 23.0659 73.3204 23.273C72.3309 23.4071 71.4227 23.8843 70.7599 24.6187Z" fill="#15076F"/>
<path d="M34.0748 62.3481C36.1823 63.1017 38.0287 64.4281 39.3989 66.1729C40.8817 68.1248 41.8783 70.391 42.3087 72.7898C42.7392 75.1886 42.5914 77.6531 41.8773 79.9857C41.1841 82.0687 39.9089 83.9183 38.1973 85.3233C36.4971 86.7099 34.4534 87.6292 32.2742 87.9874C29.4318 88.48 27.1315 88.1348 25.3733 86.9519L27.2817 97.5877L16.6928 99.4225L10.5628 65.259L20.6363 63.5135L21.008 65.5854C22.2357 63.632 24.4269 62.3819 27.5817 61.8353C29.7541 61.4395 31.9945 61.6164 34.0748 62.3481V62.3481ZM31.0491 78.4675C31.7031 77.2957 31.8881 75.9261 31.5678 74.6272C31.4124 73.2929 30.7614 72.0618 29.7397 71.1698C29.2871 70.8227 28.7654 70.573 28.2083 70.4366C27.6512 70.3003 27.0712 70.2805 26.5059 70.3785C25.9405 70.4764 25.4024 70.69 24.9263 71.0053C24.4503 71.3207 24.047 71.7307 23.7425 72.209C23.0928 73.3906 22.9096 74.7662 23.2279 76.0723C23.379 77.4005 24.0295 78.6254 25.0519 79.5067C25.5072 79.8468 26.0292 80.0907 26.585 80.2231C27.1408 80.3554 27.7185 80.3734 28.2818 80.2758C28.845 80.1782 29.3816 79.9672 29.8578 79.656C30.3341 79.3448 30.7397 78.9402 31.0491 78.4675V78.4675Z" stroke="#15076F" stroke-width="1.90923"/>
<path d="M64.9412 58.4235C67.6704 59.992 69.4039 62.8328 70.142 66.9459L72.5709 80.4824L62.716 82.19L62.1212 78.875C61.3546 81.603 59.1597 83.281 55.5364 83.9088C53.7616 84.269 51.9262 84.2215 50.1732 83.77C48.7488 83.4055 47.464 82.6394 46.4774 81.5661C45.4907 80.4928 44.8453 79.1591 44.6207 77.7297C44.3639 76.6291 44.4031 75.4818 44.7342 74.4006C45.0654 73.3194 45.6772 72.3416 46.5094 71.5631C48.2147 69.9383 51.0352 68.785 54.9709 68.103L59.2501 67.3615C58.5541 65.4566 56.7692 64.7531 53.8955 65.251C52.705 65.4628 51.5529 65.8464 50.4765 66.3894C49.4392 66.8864 48.497 67.5556 47.6913 68.3674L43.0869 62.0916C44.5661 60.8418 46.2331 59.8243 48.0288 59.0753C49.9805 58.2149 52.0323 57.5936 54.1383 57.2254C58.6111 56.4557 62.2121 56.855 64.9412 58.4235ZM59.5217 76.1446C60.0678 75.5948 60.4154 74.8842 60.5114 74.1217L60.192 72.3413L57.5682 72.796C55.4129 73.1694 54.462 74.0621 54.7153 75.4741C54.7596 75.7515 54.8671 76.0154 55.0298 76.2462C55.1926 76.4769 55.4063 76.6686 55.655 76.8067C56.2528 77.1231 56.9478 77.2137 57.6089 77.0616C58.3272 76.9562 58.9951 76.636 59.5217 76.1446V76.1446Z" stroke="#15076F" stroke-width="1.90923"/>
<path d="M80.6822 78.8398C78.8215 78.8067 76.976 78.5025 75.2061 77.9371L76.8801 70.5735C78.3293 71.1021 79.8509 71.4145 81.3943 71.5003C83.0106 71.6212 84.636 71.5469 86.2339 71.2789C87.1049 71.1773 87.951 70.9263 88.7337 70.5372C88.9267 70.4481 89.0857 70.3008 89.1874 70.1166C89.2891 69.9324 89.3281 69.7211 89.2988 69.5135C89.2272 69.1145 88.8731 68.891 88.2365 68.843C87.217 68.7998 86.1958 68.8182 85.1787 68.8981C83.3436 69.0171 81.5023 69.0109 79.668 68.8798C78.1279 68.7492 76.653 68.2088 75.4019 67.3165C74.7022 66.776 74.1194 66.1035 73.6876 65.3386C73.2559 64.5738 72.9839 63.7319 72.8877 62.8623C72.5883 61.2827 72.84 59.6501 73.6022 58.2285C74.5265 56.6175 75.8839 55.2874 77.5259 54.3837C79.6669 53.1691 82.0203 52.3588 84.4645 51.9946C86.3745 51.6611 88.3126 51.5081 90.2522 51.5376C91.9554 51.5342 93.65 51.7736 95.2832 52.2483L93.6093 59.612C91.1239 58.7726 88.4596 58.58 85.876 59.0531C83.5645 59.4536 82.4804 60.0529 82.6236 60.8509C82.6952 61.25 83.0585 61.4798 83.7135 61.5404C84.7258 61.5998 85.7411 61.5904 86.752 61.5123C88.581 61.3919 90.4167 61.407 92.2434 61.5578C93.7771 61.7098 95.2425 62.2586 96.4902 63.1481C97.1899 63.6887 97.7728 64.3611 98.2045 65.126C98.6362 65.8909 98.9082 66.7328 99.0044 67.6023C99.2871 69.1539 99.0296 70.7539 98.2734 72.1441C97.3436 73.7598 95.9777 75.0918 94.3263 75.9929C92.1463 77.2181 89.7539 78.035 87.2705 78.4024C85.0971 78.7829 82.888 78.9296 80.6822 78.8398V78.8398Z" stroke="#15076F" stroke-width="1.90923"/>
<path d="M107.185 74.2473C105.325 74.2142 103.479 73.91 101.709 73.3447L103.383 65.981C104.833 66.5096 106.354 66.822 107.898 66.9078C109.514 67.0288 111.139 66.9544 112.737 66.6864C113.608 66.5849 114.454 66.3338 115.237 65.9447C115.43 65.8557 115.589 65.7083 115.691 65.5241C115.792 65.3399 115.831 65.1286 115.802 64.921C115.73 64.522 115.376 64.2985 114.74 64.2506C113.72 64.2073 112.699 64.2257 111.682 64.3057C109.847 64.4246 108.005 64.4184 106.171 64.2873C104.631 64.1625 103.154 63.6279 101.9 62.7407C101.2 62.2002 100.618 61.5277 100.186 60.7629C99.754 59.998 99.4821 59.1561 99.3859 58.2866C99.0865 56.707 99.3382 55.0743 100.1 53.6527C101.025 52.0417 102.382 50.7116 104.024 49.8079C106.165 48.5933 108.518 47.783 110.963 47.4188C112.873 47.0853 114.811 46.9323 116.75 46.9618C118.454 46.9584 120.148 47.1978 121.781 47.6726L120.107 55.0363C117.622 54.1968 114.958 54.0042 112.374 54.4773C110.063 54.8778 108.979 55.4771 109.122 56.2752C109.193 56.6742 109.557 56.904 110.212 56.9646C111.224 57.024 112.239 57.0146 113.25 56.9365C115.079 56.8161 116.915 56.8313 118.742 56.982C120.275 57.134 121.741 57.6828 122.988 58.5724C123.688 59.1129 124.271 59.7853 124.703 60.5502C125.134 61.3151 125.406 62.157 125.503 63.0265C125.785 64.5781 125.528 66.1781 124.772 67.5683C123.842 69.1841 122.476 70.516 120.824 71.4172C118.644 72.6423 116.252 73.4593 113.769 73.8266C111.596 74.2012 109.389 74.3423 107.185 74.2473V74.2473Z" stroke="#15076F" stroke-width="1.90923"/>
<path d="M48.7512 96.6211L42.9625 123.592L32.03 125.487L17.172 102.093L28.042 100.21L35.6165 112.807L38.7246 98.3585L48.7512 96.6211Z" stroke="#15076F" stroke-width="1.90923"/>
<path d="M51.5725 96.3694L56.0916 121.555L66.6804 119.72L62.1614 94.5346L51.5725 96.3694Z" stroke="#15076F" stroke-width="1.90923"/>
<path d="M89.2164 90.7726C91.324 91.5262 93.1703 92.8527 94.5405 94.5975C96.0233 96.5493 97.0199 98.8156 97.4504 101.214C97.8808 103.613 97.733 106.078 97.019 108.41C96.3258 110.493 95.0506 112.343 93.3389 113.748C91.621 115.128 89.5604 116.034 87.3686 116.373C84.5261 116.865 82.2258 116.52 80.4676 115.337L82.3761 125.973L71.7872 127.808L65.6654 93.6903L75.7389 91.9448L76.1107 94.0167C77.3383 92.0633 79.5295 90.8132 82.6843 90.2666C84.8687 89.8617 87.1235 90.0364 89.2164 90.7726ZM86.1908 106.892C86.8447 105.72 87.0297 104.351 86.7095 103.052C86.554 101.717 85.9031 100.486 84.8813 99.5943C84.4287 99.2473 83.907 98.9975 83.3499 98.8612C82.7929 98.7249 82.2129 98.705 81.6475 98.803C81.0821 98.901 80.544 99.1145 80.068 99.4299C79.5919 99.7452 79.1886 100.155 78.8841 100.634C78.2344 101.815 78.0512 103.191 78.3696 104.497C78.5207 105.825 79.1712 107.05 80.1936 107.931C80.6488 108.271 81.1708 108.515 81.7266 108.648C82.2825 108.78 82.8602 108.798 83.4234 108.7C83.9866 108.603 84.5232 108.392 84.9995 108.081C85.4757 107.769 85.8813 107.365 86.1908 106.892V106.892Z" stroke="#15076F" stroke-width="1.90923"/>
</g>
<defs>
<clipPath id="clip0">
<rect width="116.279" height="119.018" fill="white" transform="matrix(0.985318 -0.170731 0.176612 0.984281 0 19.8525)"/>
</clipPath>
</defs>
</svg>
