<svg width="375" height="850" viewBox="0 0 375 850" fill="none" xmlns="http://www.w3.org/2000/svg">
<g clip-path="url(#clip0)">
<rect width="375" height="850" fill="white"/>
<g opacity="0.1">
<path d="M142.965 26.5021C133.061 21.8641 124.407 14.6438 117.829 5.52862C106.691 -8.44938 101.274 -21.9936 101.577 -35.1041C101.881 -48.2145 108.35 -60.3526 120.984 -71.5184L144.851 -92.6111L133.956 -106.285L162 -131.069L172.895 -117.395L199.036 -140.497L231.867 -99.2918L205.726 -76.1903L221.997 -55.7703L193.867 -30.911L177.597 -51.3311L154.071 -30.5397C151.528 -28.5574 149.823 -25.6034 149.311 -22.2937C149.152 -20.8321 149.289 -19.347 149.713 -17.9361C150.136 -16.5251 150.836 -15.2202 151.766 -14.107C154.34 -10.7467 157.82 -8.28923 161.732 -7.06853L142.965 26.5021Z" fill="#15076F"/>
<path d="M311.374 63.9379C310.397 77.54 302.957 90.4848 289.053 102.772L235.75 149.879L202.919 108.674L249.46 67.5437C260.143 58.1022 262.257 49.3299 255.8 41.2267C254.188 39.056 252.145 37.2827 249.819 36.0342C247.493 34.7857 244.942 34.0932 242.349 34.0065C237.061 33.8118 231.187 36.5687 224.728 42.2771L180.886 81.0224L148.007 39.7569L274.503 -72.0344L307.334 -30.8297L266.589 5.17855C279.022 7.5314 290.266 14.6318 298.167 25.1203C302.726 30.3514 306.246 36.4883 308.516 43.1602C310.786 49.8322 311.758 56.9005 311.374 63.9379Z" fill="#15076F"/>
<path d="M373.227 241.837L318.024 172.555C315.695 176.921 314.886 182.028 315.737 187.004C316.846 192.677 319.377 197.953 323.064 202.278C325.956 206.103 329.449 209.377 333.388 211.952C337.491 214.307 341.89 216.02 346.445 217.036L343.299 256.479C325.55 255.594 308.976 245.488 293.577 226.162C284.646 215.4 278.138 202.659 274.551 188.914C271.371 176.886 271.495 164.202 274.907 152.351C278.568 140.849 285.146 130.668 293.933 122.903C302.719 115.137 313.382 110.082 324.772 108.282C336.024 106.77 347.5 108.559 357.945 113.454C368.913 118.767 378.677 126.543 386.547 136.232C394.418 145.921 400.202 157.285 403.491 169.521C406.38 180.902 406.136 192.869 402.788 204.009C398.995 216.037 391.982 226.604 382.588 234.444C382.093 234.916 378.972 237.381 373.227 241.837ZM349.476 152.838C344.774 152.007 339.97 152.951 335.912 155.504L361.479 187.592C364.497 183.816 366.178 179.039 366.242 174.062C366.148 169.077 364.334 164.272 361.14 160.55C358.227 156.606 354.09 153.87 349.476 152.838Z" fill="#15076F"/>
<path d="M106.146 88.4022C108.059 99.3964 106.983 110.691 103.043 120.971C98.5175 132.256 91.5333 142.222 82.6514 150.072C73.7694 157.921 63.237 163.435 51.8994 166.17C41.6421 168.373 30.9612 167.476 21.0759 163.583C11.2936 159.693 2.6227 153.151 -4.05395 144.623C-12.867 133.562 -16.927 122.754 -16.2339 112.199L-55.6148 147.002L-88.4458 105.797L38.0506 -5.99407L69.2836 33.2051L61.6119 39.9849C72.6084 40.4165 82.9974 46.7704 92.7789 59.0467C99.5946 67.4521 104.207 77.581 106.146 88.4022V88.4022ZM32.3472 115.56C38.7471 115.463 44.8456 112.843 49.4469 108.216C54.5879 104.213 58.1205 98.3251 59.3683 91.6804C59.7226 88.857 59.5101 85.9776 58.7447 83.2285C57.9792 80.4795 56.6779 77.9222 54.925 75.7222C53.172 73.5222 51.0066 71.7285 48.5689 70.4574C46.1311 69.1862 43.4754 68.466 40.7738 68.3432C34.3437 68.4839 28.2247 71.1257 23.5889 75.7628C18.463 79.7319 14.955 85.6023 13.7527 92.2232C13.4336 95.0409 13.6709 97.9067 14.4497 100.64C15.2286 103.374 16.5321 105.917 18.2784 108.109C20.0247 110.3 22.176 112.094 24.5972 113.376C27.0183 114.658 29.657 115.402 32.3472 115.56V115.56Z" stroke="#15076F" stroke-width="9.10623"/>
<path d="M195.966 212.068C195.995 227.784 188.395 242.372 173.166 255.831L123.045 300.126L92.4895 261.778L104.764 250.93C91.6675 254.426 79.5021 249.124 68.2679 235.024C62.5478 228.25 58.367 220.195 56.0514 211.488C54.1598 204.419 54.2605 196.952 56.341 190.006C58.4215 183.06 62.3909 176.94 67.7598 172.401C71.6935 168.543 76.5257 165.848 81.7814 164.581C87.0371 163.314 92.5353 163.518 97.7356 165.173C108.514 168.49 120.004 177.807 132.206 193.122L145.474 209.774C151.683 202.008 150.332 192.535 141.422 181.352C137.708 176.733 133.376 172.709 128.567 169.411C124.04 166.166 119.029 163.763 113.754 162.306L128.696 126.73C137.386 130.006 145.565 134.674 152.941 140.568C161.149 146.859 168.609 154.18 175.152 162.367C188.998 179.785 195.936 196.352 195.966 212.068ZM109.843 232.874C113.416 233.863 117.181 233.592 120.559 232.103L127.151 226.278L119.016 216.068C112.334 207.681 106.378 205.798 101.15 210.418C100.11 211.302 99.2763 212.426 98.7111 213.705C98.146 214.985 97.8641 216.387 97.8865 217.808C98.0056 221.182 99.2886 224.414 101.494 226.893C103.642 229.735 106.557 231.824 109.843 232.874V232.874Z" stroke="#15076F" stroke-width="9.10623"/>
<path d="M149.174 331.098C144.873 322.97 141.728 314.231 139.843 305.167L174.251 294.022C175.524 301.608 177.862 308.967 181.188 315.855C184.543 323.146 188.727 329.988 193.644 336.228C196.141 339.741 199.196 342.772 202.67 345.185C203.498 345.798 204.486 346.117 205.489 346.097C206.492 346.077 207.458 345.718 208.246 345.073C209.723 343.768 209.802 341.679 208.481 338.806C206.229 334.29 203.717 329.921 200.962 325.722C196.094 318.084 191.728 310.107 187.896 301.849C184.762 294.863 183.477 287.137 184.179 279.5C184.743 275.125 186.131 270.926 188.261 267.15C190.39 263.374 193.219 260.096 196.582 257.51C202.392 252.272 209.736 249.284 217.426 249.031C226.284 249.006 235.016 251.555 242.665 256.398C252.787 262.624 261.747 270.777 269.08 280.436C275.012 287.862 280.266 295.86 284.77 304.321C288.846 311.676 291.898 319.601 293.832 327.848L259.424 338.993C256.964 326.151 251.406 314.15 243.29 304.16C236.124 295.165 231.063 291.974 228.108 294.585C226.631 295.891 226.548 298.035 227.859 301.019C230.028 305.544 232.488 309.911 235.221 314.087C240.081 321.695 244.396 329.67 248.129 337.944C251.159 344.956 252.387 352.662 251.688 360.277C251.124 364.652 249.736 368.851 247.607 372.627C245.477 376.404 242.648 379.681 239.286 382.268C233.551 387.364 226.328 390.244 218.782 390.445C209.891 390.459 201.132 387.877 193.471 382.987C183.212 376.619 174.132 368.314 166.692 358.493C159.937 350.046 154.063 340.86 149.174 331.098V331.098Z" stroke="#15076F" stroke-width="9.10623"/>
<path d="M231.348 434.23C227.048 426.101 223.903 417.363 222.017 408.298L256.426 397.154C257.698 404.74 260.036 412.099 263.363 418.987C266.718 426.277 270.901 433.119 275.819 439.36C278.315 442.872 281.37 445.904 284.844 448.317C285.672 448.929 286.66 449.249 287.663 449.229C288.667 449.208 289.633 448.85 290.42 448.205C291.897 446.899 291.976 444.81 290.656 441.938C288.403 437.422 285.892 433.052 283.136 428.854C278.269 421.216 273.903 413.239 270.07 404.98C266.912 398.009 265.6 390.29 266.273 382.652C266.837 378.277 268.224 374.078 270.354 370.302C272.484 366.525 275.313 363.248 278.675 360.661C284.486 355.423 291.83 352.436 299.519 352.182C308.378 352.158 317.109 354.706 324.758 359.55C334.881 365.775 343.84 373.928 351.174 383.587C357.106 391.014 362.36 399.012 366.863 407.472C370.939 414.828 373.992 422.753 375.926 431L341.517 442.145C339.058 429.302 333.499 417.302 325.384 407.311C318.217 398.317 313.156 395.125 310.201 397.737C308.724 399.042 308.641 401.187 309.953 404.17C312.121 408.696 314.581 413.062 317.315 417.239C322.174 424.846 326.489 432.821 330.223 441.096C333.253 448.107 334.48 455.813 333.781 463.429C333.217 467.804 331.83 472.003 329.7 475.779C327.57 479.555 324.741 482.833 321.379 485.419C315.644 490.515 308.421 493.396 300.876 493.597C291.984 493.61 283.225 491.029 275.565 486.138C265.305 479.77 256.225 471.465 248.786 461.645C242.058 453.187 236.211 443.994 231.348 434.23V434.23Z" stroke="#15076F" stroke-width="9.10623"/>
<path d="M-0.422168 237.421L-125.634 279.722L-159.531 237.18L-98.3341 114.536L-64.6315 156.835L-98.6026 221.034L-31.5099 198.404L-0.422168 237.421Z" stroke="#15076F" stroke-width="9.10623"/>
<path d="M7.34546 248.991L-85.9073 331.404L-53.0763 372.608L40.1765 290.196L7.34546 248.991Z" stroke="#15076F" stroke-width="9.10623"/>
<path d="M120.237 397.788C122.15 408.782 121.074 420.076 117.135 430.357C112.609 441.641 105.624 451.608 96.7426 459.457C87.8606 467.306 77.3283 472.82 65.9907 475.555C55.7333 477.758 45.0524 476.862 35.1672 472.968C25.3702 468.985 16.7139 462.337 10.0868 453.706C1.27372 442.645 -2.78623 431.837 -2.09315 421.282L-41.4741 456.085L-74.3051 414.88L52.0208 303.239L83.2538 342.439L75.5822 349.218C86.5786 349.65 96.9676 356.004 106.749 368.28C113.631 376.715 118.287 386.9 120.237 397.788ZM46.4385 424.946C52.8384 424.848 58.9368 422.229 63.5382 417.601C68.6791 413.598 72.2118 407.71 73.4596 401.066C73.8138 398.242 73.6014 395.363 72.836 392.614C72.0705 389.865 70.7691 387.308 69.0162 385.107C67.2633 382.907 65.0979 381.114 62.6602 379.843C60.2224 378.572 57.5667 377.851 54.8651 377.729C48.435 377.869 42.316 380.511 37.6802 385.148C32.5543 389.117 29.0464 394.988 27.844 401.608C27.5249 404.426 27.7621 407.292 28.541 410.026C29.3198 412.76 30.6234 415.302 32.3697 417.494C34.116 419.686 36.2673 421.479 38.6885 422.761C41.1096 424.044 43.7483 424.787 46.4385 424.946V424.946Z" stroke="#15076F" stroke-width="9.10623"/>
<path d="M2.93176 651.672L-24.571 604.036C-26.356 600.945 -30.2636 599.994 -33.2409 601.713L-73.5484 624.985C-76.6402 626.77 -77.6565 630.563 -75.8715 633.655L-48.3687 681.291C-46.6498 684.268 -42.7906 685.399 -39.6989 683.614L0.608673 660.342C3.58593 658.623 4.65068 654.65 2.93176 651.672ZM-63.3956 636.223C-63.9681 636.554 -64.5761 636.294 -64.8405 635.836L-68.0139 630.34C-68.3445 629.767 -68.1993 629.225 -67.6268 628.895L-62.1303 625.721C-61.6722 625.457 -61.0159 625.536 -60.6853 626.108L-57.5119 631.605C-57.2475 632.063 -57.441 632.785 -57.8991 633.05L-63.3956 636.223ZM-48.7383 627.761C-49.3108 628.091 -49.9188 627.832 -50.1833 627.374L-53.3567 621.877C-53.6872 621.305 -53.542 620.763 -52.9695 620.432L-47.473 617.259C-47.015 616.994 -46.3586 617.073 -46.028 617.646L-42.8546 623.142C-42.5902 623.6 -42.7838 624.323 -43.2418 624.587L-48.7383 627.761ZM-34.081 619.298C-34.6536 619.629 -35.2615 619.369 -35.526 618.911L-38.6994 613.415C-39.0299 612.842 -38.8847 612.3 -38.3122 611.97L-32.8157 608.796C-32.3577 608.532 -31.7013 608.611 -31.3707 609.184L-28.1973 614.68C-27.9329 615.138 -28.1265 615.861 -28.5845 616.125L-34.081 619.298ZM-46.6125 663.177C-47.6431 663.772 -48.9736 663.318 -49.5025 662.402L-60.0805 644.081C-60.6755 643.05 -60.3367 641.786 -59.3061 641.191L-48.3131 634.844C-47.3971 634.315 -46.0182 634.588 -45.4232 635.618L-34.8452 653.94C-34.3163 654.856 -34.7035 656.301 -35.6196 656.83L-46.6125 663.177ZM-24.6266 650.483C-25.6572 651.078 -26.9877 650.625 -27.5165 649.709L-38.0945 631.387C-38.6895 630.357 -38.3508 629.092 -37.3202 628.497L-26.3272 622.15C-25.4111 621.621 -24.0323 621.894 -23.4372 622.925L-12.8593 641.246C-12.3304 642.162 -12.7175 643.607 -13.6336 644.136L-24.6266 650.483ZM-40.124 676.531C-40.6966 676.861 -41.3045 676.602 -41.569 676.144L-44.7424 670.647C-45.0729 670.074 -44.9278 669.533 -44.3552 669.202L-38.8587 666.029C-38.4007 665.764 -37.7443 665.843 -37.4137 666.416L-34.2403 671.912C-33.9759 672.37 -34.1695 673.093 -34.6275 673.357L-40.124 676.531ZM-25.4667 668.068C-26.0393 668.399 -26.6473 668.139 -26.9117 667.681L-30.0851 662.185C-30.4157 661.612 -30.2705 661.07 -29.6979 660.74L-24.2014 657.566C-23.7434 657.302 -23.087 657.381 -22.7565 657.953L-19.5831 663.45C-19.3186 663.908 -19.5122 664.63 -19.9702 664.895L-25.4667 668.068ZM-10.8094 659.606C-11.382 659.936 -11.99 659.677 -12.2544 659.219L-15.4278 653.722C-15.7584 653.15 -15.6132 652.608 -15.0406 652.277L-9.54415 649.104C-9.08611 648.839 -8.42974 648.919 -8.09917 649.491L-4.92578 654.988C-4.66133 655.446 -4.85492 656.168 -5.31296 656.433L-10.8094 659.606Z" fill="#15076F"/>
</g>
</g>
<defs>
<clipPath id="clip0">
<rect width="375" height="850" fill="white"/>
</clipPath>
</defs>
</svg>
