<svg width="100" height="100" viewBox="0 0 100 100" fill="none" xmlns="http://www.w3.org/2000/svg">
<g opacity="0.5">
<circle cx="50" cy="50" r="50" fill="#FECD46"/>
<circle cx="50" cy="50" r="50" fill="url(#paint0_linear)"/>
</g>
<g clip-path="url(#clip0)">
<path d="M80.4999 45.2999C82.1999 46.9999 82.4999 49.4999 81.2999 50.9999L51.6999 85.3999C49.8999 87.4999 46.7999 87.4999 44.6999 85.4999L19.4999 60.2999C17.4999 58.2999 17.4999 55.0999 19.5999 53.2999L53.8999 23.7999C55.3999 22.4999 57.8999 22.8999 59.5999 24.5999L80.4999 45.2999Z" fill="#AFCDDB"/>
<path d="M68.7999 33.6999L30.6 71.3999L21.7 62.4999L61.5 26.3999L68.7999 33.6999Z" fill="#333333"/>
<path d="M67.4001 41.3L40.6001 68.8L47.8001 76L73.7001 47.6L67.4001 41.3Z" fill="white"/>
<path d="M52.1 66.2999C50.6 64.8999 51.5 62.3 52 60.9C52.9 58.7 53.8 62.8999 53.8 63.5999C54 65.6999 53.7 67.9 53.2 70C52.9 71.2 52.5 72.3 51.9 73.4C51.6 74.1 51.1 74.6999 50.5 75.0999C49 75.9999 48.1 75.0999 47.8 72.5999C48 71.7999 48.3 71.1 48.9 70.5C50.8 68.1 53.8 66.9999 56 65.0999C56.2 64.8999 55.9 64.5999 55.7 64.7999C53.1 66.9999 47.7 68.7999 47.4 73.0999C47.2 75.8999 50.1 76.6 51.6 75C53.6 72.9 54.1 69.2 54.3 66.4C54.4 64.8 54.8 60.2 52.4 59.7C52.3 59.7 52.2 59.6999 52.2 59.7999C51.2 61.4999 49.9 64.9999 51.9 66.7999C52 66.8999 52.3 66.4999 52.1 66.2999Z" fill="#4F5B60"/>
<path d="M55.3999 64.7C57.4999 65.9 58.0999 61.2 57.7999 59.9C57.7999 59.7 57.4999 59.7 57.3999 59.8C56.2999 60.7 56.0999 63.1 56.9999 64.5C57.0999 64.7 57.2999 64.7 57.3999 64.5C58.0999 63.2 58.4999 61.9 58.9999 60.5C59.1999 59.9 59.6999 60.1 60.0999 59.7L62.4999 57.3C63.4999 56.3 63.7999 54.9 64.6999 53.9C65.8999 52.6 66.9999 52 67.5999 50.2C67.6999 49.8 67.6999 48.8 66.9999 48.8C65.5999 48.7 64.3999 51.6 66.2999 51.3C68.4999 51 70.4999 48.4 71.8999 47C72.0999 46.8 71.7999 46.5 71.5999 46.7C70.8999 47.4 70.0999 48.1 69.3999 48.7C68.7999 49.2 68.1999 49.7 67.4999 50.2C67.1999 50.4 64.5999 51.6 66.1999 49.7C66.4999 49.9 66.7999 50.1 67.0999 50.4C66.9999 50.6 66.8999 50.9 66.7999 51.1C66.5999 51.5 66.2999 51.9 65.9999 52.3C65.4999 53 64.5999 53.4 63.9999 54.1C63.1999 55 62.8999 56.2 62.0999 57.1C61.6999 57.5 59.7999 60 59.0999 59.7C58.9999 59.7 58.8999 59.7 58.8999 59.8C58.6999 60.5 58.4999 61.1 58.1999 61.8C58.0999 62 57.1999 63.9 57.1999 64C56.7999 63 56.8999 61.8 57.2999 60.9C57.5999 61.4 57.5999 62 57.3999 62.5C57.1999 63.7 56.5999 64.4 55.5999 64.6C55.2999 64.1 55.0999 64.5 55.3999 64.7Z" fill="#4F5B60"/>
</g>
<defs>
<linearGradient id="paint0_linear" x1="50" y1="0" x2="50" y2="100" gradientUnits="userSpaceOnUse">
<stop stop-color="white"/>
<stop offset="1" stop-color="white" stop-opacity="0"/>
</linearGradient>
<clipPath id="clip0">
<rect width="64" height="64" fill="white" transform="translate(18 23)"/>
</clipPath>
</defs>
</svg>
