<svg width="64" height="64" viewBox="0 0 64 64" fill="none" xmlns="http://www.w3.org/2000/svg">
<g clip-path="url(#clip0)">
<path d="M62.4999 22.2999C64.1999 23.9999 64.4999 26.4999 63.2999 27.9999L33.6999 62.3999C31.8999 64.4999 28.7999 64.4999 26.6999 62.4999L1.49994 37.2999C-0.500064 35.2999 -0.500064 32.0999 1.59994 30.2999L35.8999 0.799881C37.3999 -0.500119 39.8999 -0.100119 41.5999 1.59988L62.4999 22.2999Z" fill="#AFCDDB"/>
<path d="M50.7999 10.6999L12.6 48.3999L3.69995 39.4999L43.5 3.3999L50.7999 10.6999Z" fill="#333333"/>
<path d="M49.4001 18.3L22.6001 45.8L29.8001 53L55.7001 24.6L49.4001 18.3Z" fill="white"/>
<path d="M34.1 43.2999C32.6 41.8999 33.5 39.3 34 37.9C34.9 35.7 35.8 39.8999 35.8 40.5999C36 42.6999 35.7 44.9 35.2 47C34.9 48.2 34.5 49.3 33.9 50.4C33.6 51.1 33.1 51.6999 32.5 52.0999C31 52.9999 30.1 52.0999 29.8 49.5999C30 48.7999 30.3 48.1 30.9 47.5C32.8 45.1 35.8 43.9999 38 42.0999C38.2 41.8999 37.9 41.5999 37.7 41.7999C35.1 43.9999 29.7 45.7999 29.4 50.0999C29.2 52.8999 32.1 53.6 33.6 52C35.6 49.9 36.1 46.2 36.3 43.4C36.4 41.8 36.8 37.2 34.4 36.7C34.3 36.7 34.2 36.6999 34.2 36.7999C33.2 38.4999 31.9 41.9999 33.9 43.7999C34 43.8999 34.3 43.4999 34.1 43.2999Z" fill="#4F5B60"/>
<path d="M37.3999 41.7C39.4999 42.9 40.0999 38.2 39.7999 36.9C39.7999 36.7 39.4999 36.7 39.3999 36.8C38.2999 37.7 38.0999 40.1 38.9999 41.5C39.0999 41.7 39.2999 41.7 39.3999 41.5C40.0999 40.2 40.4999 38.9 40.9999 37.5C41.1999 36.9 41.6999 37.1 42.0999 36.7L44.4999 34.3C45.4999 33.3 45.7999 31.9 46.6999 30.9C47.8999 29.6 48.9999 29 49.5999 27.2C49.6999 26.8 49.6999 25.8 48.9999 25.8C47.5999 25.7 46.3999 28.6 48.2999 28.3C50.4999 28 52.4999 25.4 53.8999 24C54.0999 23.8 53.7999 23.5 53.5999 23.7C52.8999 24.4 52.0999 25.1 51.3999 25.7C50.7999 26.2 50.1999 26.7 49.4999 27.2C49.1999 27.4 46.5999 28.6 48.1999 26.7C48.4999 26.9 48.7999 27.1 49.0999 27.4C48.9999 27.6 48.8999 27.9 48.7999 28.1C48.5999 28.5 48.2999 28.9 47.9999 29.3C47.4999 30 46.5999 30.4 45.9999 31.1C45.1999 32 44.8999 33.2 44.0999 34.1C43.6999 34.5 41.7999 37 41.0999 36.7C40.9999 36.7 40.8999 36.7 40.8999 36.8C40.6999 37.5 40.4999 38.1 40.1999 38.8C40.0999 39 39.1999 40.9 39.1999 41C38.7999 40 38.8999 38.8 39.2999 37.9C39.5999 38.4 39.5999 39 39.3999 39.5C39.1999 40.7 38.5999 41.4 37.5999 41.6C37.2999 41.1 37.0999 41.5 37.3999 41.7Z" fill="#4F5B60"/>
</g>
<defs>
<clipPath id="clip0">
<rect width="64" height="64" fill="white"/>
</clipPath>
</defs>
</svg>
