<svg width="23" height="21" viewBox="0 0 23 21" fill="none" xmlns="http://www.w3.org/2000/svg">
<path d="M11.4 10.3637C10.7851 10.3637 10.184 10.546 9.6727 10.8876C9.16141 11.2293 8.76291 11.7148 8.52759 12.283C8.29227 12.8511 8.2307 13.4762 8.35067 14.0793C8.47063 14.6824 8.76674 15.2364 9.20156 15.6712C9.63638 16.106 10.1904 16.4021 10.7935 16.5221C11.3966 16.6421 12.0217 16.5805 12.5898 16.3452C13.1579 16.1099 13.6435 15.7114 13.9851 15.2001C14.3268 14.6888 14.5091 14.0877 14.5091 13.4728C14.5091 12.6482 14.1816 11.8574 13.5985 11.2743C13.0154 10.6912 12.2246 10.3637 11.4 10.3637ZM11.4 14.5091C11.1951 14.5091 10.9947 14.4483 10.8243 14.3345C10.6538 14.2206 10.521 14.0587 10.4425 13.8694C10.3641 13.68 10.3436 13.4716 10.3836 13.2706C10.4236 13.0695 10.5223 12.8849 10.6672 12.7399C10.8121 12.595 10.9968 12.4963 11.1978 12.4563C11.3989 12.4163 11.6073 12.4368 11.7966 12.5153C11.986 12.5937 12.1479 12.7266 12.2617 12.897C12.3756 13.0674 12.4364 13.2678 12.4364 13.4728C12.4364 13.7476 12.3272 14.0112 12.1328 14.2056C11.9385 14.3999 11.6749 14.5091 11.4 14.5091ZM10.6642 7.99038C10.7628 8.08473 10.879 8.15869 11.0062 8.20802C11.1303 8.26285 11.2644 8.29117 11.4 8.29117C11.5357 8.29117 11.6698 8.26285 11.7938 8.20802C11.9211 8.15869 12.0373 8.08473 12.1358 7.99038L14.5091 5.65856C14.7098 5.45791 14.8225 5.18577 14.8225 4.90201C14.8225 4.61825 14.7098 4.34611 14.5091 4.14546C14.3085 3.94481 14.0363 3.83209 13.7526 3.83209C13.4688 3.83209 13.1967 3.94481 12.996 4.14546L12.4364 4.75692V1.03637C12.4364 0.761504 12.3272 0.497901 12.1328 0.303544C11.9385 0.109188 11.6749 0 11.4 0C11.1252 0 10.8616 0.109188 10.6672 0.303544C10.4728 0.497901 10.3637 0.761504 10.3637 1.03637V4.75692L9.80402 4.14546C9.60337 3.94481 9.33123 3.83209 9.04747 3.83209C8.76371 3.83209 8.49158 3.94481 8.29093 4.14546C8.09028 4.34611 7.97755 4.61825 7.97755 4.90201C7.97755 5.18577 8.09028 5.45791 8.29093 5.65856L10.6642 7.99038ZM18.6546 13.4728C18.6546 13.2678 18.5938 13.0674 18.4799 12.897C18.3661 12.7266 18.2042 12.5937 18.0148 12.5153C17.8254 12.4368 17.6171 12.4163 17.416 12.4563C17.215 12.4963 17.0303 12.595 16.8854 12.7399C16.7405 12.8849 16.6418 13.0695 16.6018 13.2706C16.5618 13.4716 16.5823 13.68 16.6607 13.8694C16.7392 14.0587 16.872 14.2206 17.0424 14.3345C17.2129 14.4483 17.4132 14.5091 17.6182 14.5091C17.8931 14.5091 18.1567 14.3999 18.351 14.2056C18.5454 14.0112 18.6546 13.7476 18.6546 13.4728ZM19.691 6.21819H16.5819C16.307 6.21819 16.0434 6.32738 15.849 6.52174C15.6547 6.7161 15.5455 6.9797 15.5455 7.25456C15.5455 7.52942 15.6547 7.79303 15.849 7.98738C16.0434 8.18174 16.307 8.29093 16.5819 8.29093H19.691C19.9658 8.29093 20.2294 8.40011 20.4238 8.59447C20.6181 8.78883 20.7273 9.05243 20.7273 9.32729V17.6182C20.7273 17.8931 20.6181 18.1567 20.4238 18.351C20.2294 18.5454 19.9658 18.6546 19.691 18.6546H3.1091C2.83424 18.6546 2.57063 18.5454 2.37628 18.351C2.18192 18.1567 2.07273 17.8931 2.07273 17.6182V9.32729C2.07273 9.05243 2.18192 8.78883 2.37628 8.59447C2.57063 8.40011 2.83424 8.29093 3.1091 8.29093H6.21819C6.49306 8.29093 6.75666 8.18174 6.95102 7.98738C7.14537 7.79303 7.25456 7.52942 7.25456 7.25456C7.25456 6.9797 7.14537 6.7161 6.95102 6.52174C6.75666 6.32738 6.49306 6.21819 6.21819 6.21819H3.1091C2.28451 6.21819 1.4937 6.54576 0.910634 7.12883C0.327565 7.7119 0 8.50271 0 9.32729V17.6182C0 18.4428 0.327565 19.2336 0.910634 19.8167C1.4937 20.3997 2.28451 20.7273 3.1091 20.7273H19.691C20.5155 20.7273 21.3063 20.3997 21.8894 19.8167C22.4725 19.2336 22.8 18.4428 22.8 17.6182V9.32729C22.8 8.50271 22.4725 7.7119 21.8894 7.12883C21.3063 6.54576 20.5155 6.21819 19.691 6.21819ZM4.14546 13.4728C4.14546 13.6777 4.20625 13.8781 4.32012 14.0485C4.434 14.219 4.59586 14.3518 4.78523 14.4302C4.9746 14.5087 5.18298 14.5292 5.38401 14.4892C5.58505 14.4492 5.76971 14.3505 5.91465 14.2056C6.05959 14.0606 6.15829 13.876 6.19828 13.6749C6.23827 13.4739 6.21775 13.2655 6.13931 13.0762C6.06087 12.8868 5.92803 12.7249 5.7576 12.611C5.58717 12.4972 5.3868 12.4364 5.18183 12.4364C4.90697 12.4364 4.64336 12.5456 4.44901 12.7399C4.25465 12.9343 4.14546 13.1979 4.14546 13.4728Z" fill="black"/>
</svg>
