<svg width="177" height="43" viewBox="0 0 177 43" fill="none" xmlns="http://www.w3.org/2000/svg">
<path d="M14.1711 3.68602L11.1201 11.9564L9.26159 11.9564L7.12431 6.25695L4.95606 11.9564L3.09756 11.9564L0.062012 3.68602L1.88954 3.68602L4.07328 9.7881L6.34994 3.68602L7.97613 3.68602L10.2063 9.81907L12.452 3.68602L14.1711 3.68602Z" fill="#15076F"/>
<path d="M28.5618 3.68602L25.5108 11.9563L23.6523 11.9563L21.515 6.25695L19.3467 11.9563L17.4882 11.9564L14.4527 3.68602L16.2802 3.68602L18.4639 9.7881L20.7406 3.68602L22.3668 3.68602L24.597 9.81907L26.8427 3.68602L28.5618 3.68602Z" fill="#15076F"/>
<path d="M42.9525 3.68602L39.9014 11.9563L38.0429 11.9563L35.9057 6.25695L33.7374 11.9563L31.8789 11.9563L28.8434 3.68602L30.6709 3.68602L32.8546 9.7881L35.1313 3.68602L36.7575 3.68602L38.9877 9.81907L41.2334 3.68602L42.9525 3.68602Z" fill="#15076F"/>
<path d="M44.6986 12.0648C44.3475 12.0648 44.0481 11.946 43.8003 11.7085C43.5525 11.4607 43.4286 11.151 43.4286 10.7793C43.4286 10.3973 43.5473 10.0875 43.7848 9.85005C44.0326 9.61257 44.3372 9.49384 44.6986 9.49384C45.0599 9.49384 45.3594 9.61257 45.5968 9.85005C45.8446 10.0875 45.9685 10.3973 45.9685 10.7793C45.9685 11.151 45.8446 11.4607 45.5968 11.7085C45.349 11.946 45.0496 12.0648 44.6986 12.0648Z" fill="#15076F"/>
<path d="M53.0658 11.5072C52.8387 11.6931 52.5599 11.8324 52.2295 11.9254C51.9094 12.0183 51.5687 12.0648 51.2073 12.0648C50.2987 12.0648 49.5966 11.8273 49.101 11.3523C48.6054 10.8774 48.3576 10.1856 48.3576 9.27701L48.3576 5.29672L46.9947 5.29672L46.9947 3.74797L48.3576 3.74797L48.3576 1.8585L50.2935 1.8585L50.2935 3.74797L52.5083 3.74797L52.5083 5.29672L50.2935 5.29672L50.2935 9.23055C50.2935 9.63322 50.3916 9.94297 50.5878 10.1598C50.784 10.3663 51.0679 10.4695 51.4396 10.4695C51.8733 10.4695 52.2346 10.356 52.5237 10.1288L53.0658 11.5072Z" fill="#15076F"/>
<path d="M59.6608 3.5931C60.7036 3.5931 61.54 3.89768 62.1698 4.50686C62.7996 5.11603 63.1145 6.01947 63.1145 7.21717L63.1145 11.9563L61.1786 11.9563L61.1786 7.46497C61.1786 6.74222 61.0082 6.20016 60.6675 5.83878C60.3268 5.46708 59.8415 5.28123 59.2117 5.28123C58.4993 5.28123 57.9365 5.49806 57.5235 5.93171C57.1105 6.35503 56.904 6.96937 56.904 7.77472L56.904 11.9563L54.9681 11.9563L54.9681 0.464621L56.904 0.464621L56.904 4.64625C57.2241 4.30552 57.6165 4.0474 58.0811 3.87187C58.556 3.68602 59.0826 3.5931 59.6608 3.5931Z" fill="#15076F"/>
<path d="M73.7305 7.86765C73.7305 8.00187 73.7202 8.19288 73.6995 8.44068L67.2102 8.44068C67.3238 9.04986 67.6181 9.53513 68.093 9.89651C68.5783 10.2476 69.1772 10.4231 69.8896 10.4231C70.7982 10.4231 71.5467 10.1237 72.1353 9.52481L73.1729 10.7173C72.8012 11.1613 72.3315 11.4969 71.7636 11.724C71.1957 11.9512 70.5556 12.0648 69.8431 12.0648C68.9345 12.0648 68.1343 11.8841 67.4426 11.5227C66.7508 11.1613 66.2139 10.6606 65.8319 10.0204C65.4602 9.36993 65.2743 8.63686 65.2743 7.82118C65.2743 7.01583 65.455 6.29308 65.8164 5.65293C66.1881 5.00246 66.6992 4.49653 67.3496 4.13516C68.0001 3.77378 68.7332 3.5931 69.5489 3.5931C70.3542 3.5931 71.0718 3.77378 71.7016 4.13516C72.3418 4.48621 72.8374 4.98697 73.1884 5.63745C73.5498 6.2776 73.7305 7.021 73.7305 7.86765ZM69.5489 5.14185C68.9294 5.14185 68.4028 5.3277 67.9691 5.6994C67.5458 6.06077 67.2877 6.54605 67.1948 7.15522L71.8875 7.15522C71.8049 6.55637 71.5519 6.0711 71.1286 5.6994C70.7053 5.3277 70.1787 5.14185 69.5489 5.14185Z" fill="#15076F"/>
<path d="M80.4841 3.59309C81.2895 3.59309 82.0071 3.76862 82.6369 4.11967C83.277 4.47072 83.7778 4.96632 84.1392 5.60647C84.5005 6.24662 84.6812 6.98486 84.6812 7.82118C84.6812 8.65751 84.5005 9.40091 84.1392 10.0514C83.7778 10.6915 83.277 11.1871 82.6369 11.5382C82.0071 11.8892 81.2895 12.0648 80.4841 12.0648C79.369 12.0648 78.4862 11.6931 77.8358 10.9497L77.8358 14.9609L75.8998 14.9609L75.8998 3.68602L77.7428 3.68602L77.7428 4.77014C78.0629 4.37779 78.4553 4.08353 78.9199 3.88736C79.3948 3.69118 79.9163 3.59309 80.4841 3.59309ZM80.2673 10.4076C80.9797 10.4076 81.5631 10.1701 82.0174 9.69517C82.482 9.22022 82.7143 8.59556 82.7143 7.82118C82.7143 7.04681 82.482 6.42215 82.0174 5.9472C81.5631 5.47225 80.9797 5.23477 80.2673 5.23477C79.8027 5.23477 79.3845 5.34318 79.0128 5.56001C78.6411 5.76651 78.3469 6.06593 78.13 6.45828C77.9132 6.85063 77.8048 7.30493 77.8048 7.82118C77.8048 8.33743 77.9132 8.79173 78.13 9.18408C78.3469 9.57643 78.6411 9.88102 79.0128 10.0978C79.3845 10.3043 79.8027 10.4076 80.2673 10.4076Z" fill="#15076F"/>
<path d="M89.8806 3.59309C91.0989 3.59309 92.0282 3.88736 92.6683 4.47588C93.3188 5.05408 93.644 5.93171 93.644 7.10876L93.644 11.9563L91.8165 11.9563L91.8165 10.9497C91.579 11.311 91.2383 11.5898 90.7943 11.786C90.3607 11.9718 89.8341 12.0648 89.2146 12.0648C88.5951 12.0648 88.053 11.9615 87.5884 11.755C87.1238 11.5382 86.7624 11.2439 86.5043 10.8722C86.2565 10.4902 86.1326 10.0617 86.1326 9.58676C86.1326 8.84336 86.4062 8.24967 86.9534 7.8057C87.511 7.3514 88.3834 7.12424 89.5708 7.12424L91.7081 7.12424L91.7081 7.00034C91.7081 6.42214 91.5326 5.97817 91.1815 5.66842C90.8408 5.35867 90.3297 5.20379 89.6483 5.20379C89.1836 5.20379 88.7242 5.27607 88.2699 5.42062C87.8259 5.56517 87.449 5.76651 87.1393 6.02463L86.3804 4.61527C86.814 4.28487 87.3354 4.03191 87.9446 3.85638C88.5538 3.68086 89.1991 3.59309 89.8806 3.59309ZM89.6173 10.6554C90.1026 10.6554 90.531 10.547 90.9027 10.3302C91.2848 10.103 91.5532 9.78293 91.7081 9.36993L91.7081 8.40971L89.7102 8.40971C88.5951 8.40971 88.0376 8.77624 88.0376 9.50932C88.0376 9.86037 88.1769 10.1391 88.4557 10.3456C88.7345 10.5521 89.1217 10.6554 89.6173 10.6554Z" fill="#15076F"/>
<path d="M98.9938 12.0648C98.3226 12.0648 97.667 11.977 97.0268 11.8015C96.3867 11.6259 95.8756 11.404 95.4936 11.1355L96.237 9.66419C96.6087 9.91199 97.0527 10.1133 97.5689 10.2682C98.0955 10.4128 98.6117 10.485 99.1176 10.485C100.274 10.485 100.852 10.1804 100.852 9.57127C100.852 9.28217 100.703 9.08083 100.403 8.96726C100.114 8.85368 99.6442 8.74527 98.9938 8.64202C98.3123 8.53877 97.7547 8.42003 97.3211 8.28581C96.8978 8.15158 96.5261 7.91927 96.206 7.58887C95.8962 7.24814 95.7414 6.77836 95.7414 6.17951C95.7414 5.39481 96.0666 4.77014 96.7171 4.30552C97.3779 3.83057 98.2658 3.59309 99.3809 3.59309C99.9488 3.59309 100.517 3.66021 101.085 3.79443C101.652 3.91833 102.117 4.08869 102.478 4.30552L101.735 5.77683C101.033 5.36383 100.243 5.15733 99.3654 5.15733C98.7976 5.15733 98.3639 5.24509 98.0645 5.42062C97.7754 5.58582 97.6308 5.80781 97.6308 6.08658C97.6308 6.39633 97.7857 6.61832 98.0955 6.75254C98.4156 6.87644 98.906 6.99518 99.5668 7.10876C100.228 7.21201 100.77 7.33074 101.193 7.46497C101.616 7.59919 101.978 7.82634 102.277 8.14642C102.587 8.46649 102.742 8.92079 102.742 9.50932C102.742 10.2837 102.406 10.9032 101.735 11.3678C101.064 11.8324 100.15 12.0648 98.9938 12.0648Z" fill="#15076F"/>
<path d="M107.274 12.0648C106.603 12.0648 105.947 11.977 105.307 11.8015C104.667 11.6259 104.156 11.404 103.774 11.1355L104.517 9.66419C104.889 9.91199 105.333 10.1133 105.849 10.2682C106.376 10.4128 106.892 10.485 107.398 10.485C108.554 10.485 109.133 10.1804 109.133 9.57127C109.133 9.28217 108.983 9.08083 108.683 8.96726C108.394 8.85368 107.925 8.74527 107.274 8.64202C106.593 8.53877 106.035 8.42003 105.601 8.28581C105.178 8.15158 104.806 7.91927 104.486 7.58887C104.177 7.24814 104.022 6.77836 104.022 6.17951C104.022 5.39481 104.347 4.77014 104.997 4.30552C105.658 3.83057 106.546 3.59309 107.661 3.59309C108.229 3.59309 108.797 3.66021 109.365 3.79443C109.933 3.91833 110.397 4.08869 110.759 4.30552L110.015 5.77683C109.313 5.36383 108.523 5.15733 107.646 5.15733C107.078 5.15733 106.644 5.24509 106.345 5.42062C106.056 5.58582 105.911 5.80781 105.911 6.08658C105.911 6.39633 106.066 6.61832 106.376 6.75254C106.696 6.87644 107.186 6.99518 107.847 7.10876C108.508 7.21201 109.05 7.33074 109.473 7.46497C109.897 7.59919 110.258 7.82634 110.557 8.14642C110.867 8.46649 111.022 8.92079 111.022 9.50932C111.022 10.2837 110.687 10.9032 110.015 11.3678C109.344 11.8324 108.431 12.0648 107.274 12.0648Z" fill="#15076F"/>
<path d="M120.592 3.68602L117.045 11.9563L115.047 11.9563L111.5 3.68602L113.514 3.68602L116.085 9.81907L118.733 3.68602L120.592 3.68602Z" fill="#15076F"/>
<path d="M122.111 3.68602L124.047 3.68602L124.047 11.9563L122.111 11.9563L122.111 3.68602ZM123.087 2.32312C122.736 2.32312 122.442 2.2147 122.204 1.99788C121.967 1.77073 121.848 1.49195 121.848 1.16155C121.848 0.831154 121.967 0.557541 122.204 0.340716C122.442 0.113566 122.736 -8.25698e-06 123.087 -8.28061e-06C123.438 -8.30424e-06 123.732 0.108404 123.97 0.325229C124.207 0.531729 124.326 0.795017 124.326 1.11509C124.326 1.45582 124.207 1.74492 123.97 1.98239C123.743 2.20954 123.448 2.32312 123.087 2.32312Z" fill="#15076F"/>
<path d="M131.482 3.59309C132.288 3.59309 133.005 3.76862 133.635 4.11967C134.275 4.47072 134.776 4.96632 135.137 5.60647C135.499 6.24662 135.679 6.98485 135.679 7.82118C135.679 8.6575 135.499 9.4009 135.137 10.0514C134.776 10.6915 134.275 11.1871 133.635 11.5382C133.005 11.8892 132.288 12.0648 131.482 12.0648C130.367 12.0648 129.484 11.6931 128.834 10.9497L128.834 14.9609L126.898 14.9609L126.898 3.68602L128.741 3.68602L128.741 4.77014C129.061 4.37779 129.453 4.08353 129.918 3.88735C130.393 3.69118 130.914 3.59309 131.482 3.59309ZM131.265 10.4076C131.978 10.4076 132.561 10.1701 133.015 9.69517C133.48 9.22022 133.712 8.59555 133.712 7.82118C133.712 7.0468 133.48 6.42214 133.015 5.94719C132.561 5.47224 131.978 5.23477 131.265 5.23477C130.801 5.23477 130.383 5.34318 130.011 5.56C129.639 5.7665 129.345 6.06593 129.128 6.45828C128.911 6.85063 128.803 7.30493 128.803 7.82118C128.803 8.33743 128.911 8.79173 129.128 9.18408C129.345 9.57643 129.639 9.88102 130.011 10.0978C130.383 10.3043 130.801 10.4076 131.265 10.4076Z" fill="#15076F"/>
<path d="M138.293 12.0648C137.942 12.0648 137.643 11.946 137.395 11.7085C137.147 11.4607 137.023 11.151 137.023 10.7793C137.023 10.3973 137.142 10.0875 137.38 9.85004C137.627 9.61257 137.932 9.49383 138.293 9.49383C138.655 9.49383 138.954 9.61257 139.192 9.85004C139.439 10.0875 139.563 10.3973 139.563 10.7793C139.563 11.151 139.439 11.4607 139.192 11.7085C138.944 11.946 138.644 12.0648 138.293 12.0648Z" fill="#15076F"/>
<path d="M145.408 12.0648C144.551 12.0648 143.782 11.8841 143.1 11.5227C142.419 11.1613 141.887 10.6606 141.505 10.0204C141.123 9.36993 140.932 8.63685 140.932 7.82118C140.932 7.0055 141.123 6.27759 141.505 5.63744C141.887 4.99729 142.414 4.49653 143.085 4.13515C143.766 3.77378 144.541 3.59309 145.408 3.59309C146.224 3.59309 146.936 3.75829 147.545 4.08869C148.165 4.41909 148.629 4.89404 148.939 5.51354L147.452 6.38084C147.215 5.99882 146.915 5.71488 146.554 5.52903C146.203 5.33285 145.816 5.23477 145.392 5.23477C144.67 5.23477 144.071 5.47224 143.596 5.94719C143.121 6.41182 142.883 7.03648 142.883 7.82118C142.883 8.60588 143.116 9.2357 143.58 9.71065C144.055 10.1753 144.659 10.4076 145.392 10.4076C145.816 10.4076 146.203 10.3147 146.554 10.1288C146.915 9.93264 147.215 9.64354 147.452 9.26152L148.939 10.1288C148.619 10.7483 148.149 11.2284 147.53 11.5692C146.92 11.8996 146.213 12.0648 145.408 12.0648Z" fill="#15076F"/>
<path d="M154.518 12.0648C153.682 12.0648 152.928 11.8841 152.257 11.5227C151.586 11.1613 151.059 10.6606 150.677 10.0204C150.306 9.36993 150.12 8.63685 150.12 7.82118C150.12 7.0055 150.306 6.27759 150.677 5.63744C151.059 4.99729 151.586 4.49653 152.257 4.13515C152.928 3.77378 153.682 3.59309 154.518 3.59309C155.365 3.59309 156.124 3.77378 156.795 4.13515C157.466 4.49653 157.987 4.99729 158.359 5.63744C158.741 6.27759 158.932 7.0055 158.932 7.82118C158.932 8.63685 158.741 9.36993 158.359 10.0204C157.987 10.6606 157.466 11.1613 156.795 11.5227C156.124 11.8841 155.365 12.0648 154.518 12.0648ZM154.518 10.4076C155.231 10.4076 155.819 10.1701 156.284 9.69517C156.748 9.22022 156.981 8.59555 156.981 7.82118C156.981 7.0468 156.748 6.42214 156.284 5.94719C155.819 5.47224 155.231 5.23477 154.518 5.23477C153.806 5.23477 153.217 5.47224 152.753 5.94719C152.298 6.42214 152.071 7.0468 152.071 7.82118C152.071 8.59555 152.298 9.22022 152.753 9.69517C153.217 10.1701 153.806 10.4076 154.518 10.4076Z" fill="#15076F"/>
<path d="M171.532 3.59309C172.575 3.59309 173.401 3.89768 174.01 4.50685C174.619 5.1057 174.924 6.00914 174.924 7.21716L174.924 11.9563L172.988 11.9563L172.988 7.46496C172.988 6.74221 172.828 6.20015 172.507 5.83878C172.187 5.46708 171.728 5.28123 171.129 5.28123C170.479 5.28123 169.957 5.49805 169.565 5.9317C169.173 6.35503 168.976 6.9642 168.976 7.75923L168.976 11.9563L167.04 11.9563L167.04 7.46496C167.04 6.74221 166.88 6.20015 166.56 5.83878C166.24 5.46708 165.781 5.28123 165.182 5.28123C164.521 5.28123 163.995 5.49289 163.602 5.91621C163.22 6.33954 163.029 6.95388 163.029 7.75923L163.029 11.9563L161.093 11.9563L161.093 3.68601L162.936 3.68601L162.936 4.73916C163.246 4.36746 163.633 4.08353 164.098 3.88735C164.562 3.69118 165.079 3.59309 165.647 3.59309C166.266 3.59309 166.813 3.71183 167.288 3.9493C167.773 4.17645 168.155 4.51718 168.434 4.97148C168.775 4.53783 169.214 4.20226 169.751 3.96479C170.288 3.71699 170.881 3.59309 171.532 3.59309Z" fill="#15076F"/>
<path d="M0.125001 40.4219C0.125001 41.3711 0.863282 42.1094 1.8125 42.1094L14.1875 42.1094C15.1016 42.1094 15.875 41.3711 15.875 40.4219L15.875 30.8594L0.125 30.8594L0.125001 40.4219ZM4.83594 34.832L6.73438 34.5508L7.61328 32.793C7.75391 32.4766 8.21094 32.4766 8.35156 32.793L9.23047 34.5508L11.1289 34.832C11.4805 34.8672 11.6211 35.2891 11.375 35.5352L10.0039 36.9062L10.3203 38.8047C10.3906 39.1562 10.0039 39.4375 9.72266 39.2617L8 38.3477L6.27734 39.2617C5.96094 39.4375 5.60938 39.1562 5.64453 38.8047L5.99609 36.9062L4.58984 35.5352C4.34375 35.2891 4.48438 34.8672 4.83594 34.832ZM14.1875 26.3594L12.5 26.3594L12.5 25.2344C12.5 24.6367 11.9727 24.1094 11.375 24.1094C10.7422 24.1094 10.25 24.6367 10.25 25.2344L10.25 26.3594L5.75 26.3594L5.75 25.2344C5.75 24.6367 5.22266 24.1094 4.625 24.1094C3.99219 24.1094 3.5 24.6367 3.5 25.2344L3.5 26.3594L1.8125 26.3594C0.863281 26.3594 0.125 27.1328 0.125 28.0469L0.125 29.7344L15.875 29.7344L15.875 28.0469C15.875 27.1328 15.1016 26.3594 14.1875 26.3594Z" fill="#15076F"/>
<path d="M38.8399 24.5313C38.7695 24.2852 38.5234 24.0743 38.207 24.1446C37.9258 24.1797 37.75 24.4258 37.75 24.7071L37.75 29.7696L37.1172 29.7696L36.5899 24.6368C36.5899 24.3555 36.3438 24.1446 36.0625 24.1446C35.7461 24.1446 35.5 24.3555 35.5 24.6368L34.9727 29.7696L34.375 29.7696L34.375 24.7071C34.375 24.4258 34.1641 24.1797 33.8828 24.1446C33.6016 24.0743 33.3203 24.2852 33.25 24.5313L32.1953 28.3633C31.9492 29.5235 32.2305 30.7539 32.9688 31.668C33.4258 32.1953 33.9531 32.5821 34.5859 32.8282L34.375 41.2657C34.3399 41.4766 34.4453 41.7227 34.586 41.8633C34.7617 42.0391 34.9727 42.1094 35.2188 42.1094L36.9063 42.1094C37.1172 42.1094 37.3281 42.0391 37.5039 41.8633C37.6445 41.7227 37.75 41.4766 37.75 41.2657L37.5039 32.8282C38.1367 32.5821 38.6641 32.1953 39.1211 31.668C39.8594 30.7539 40.1406 29.5235 39.8945 28.3282L38.8399 24.5313ZM46.9961 24.1446C45.0274 24.1446 38.7344 29.3125 44.8516 34.7266L44.5 41.2305C44.4649 41.4766 44.5703 41.6875 44.711 41.8633C44.8867 42.0391 45.0977 42.1094 45.3086 42.1094L46.9961 42.1094C47.4883 42.1094 47.875 41.7578 47.875 41.3008L47.875 24.9883C47.875 24.4961 47.4883 24.1446 46.9961 24.1446Z" fill="#15076F"/>
<path d="M78.8554 33.1094C78.4336 33.1094 78.0117 33.0742 77.625 32.9336L77.625 37.6094L66.3398 37.6094L66.3398 32.9336C65.9531 33.0742 65.5312 33.1094 65.1093 33.1094C64.8984 33.1094 64.7226 33.1094 64.5117 33.0742C64.3711 33.0742 64.2656 33.0039 64.125 32.9687L64.125 40.4219C64.125 41.3711 64.8632 42.1094 65.8125 42.1094L78.1875 42.1094C79.1015 42.1094 79.875 41.3711 79.875 40.4219L79.875 32.9687C79.6992 33.0039 79.5937 33.0742 79.4179 33.0742C79.2422 33.1094 79.0664 33.1094 78.8554 33.1094ZM81.1054 27.7656L79.1015 24.6016C78.9257 24.2852 78.6093 24.1094 78.2578 24.1094L65.707 24.1094C65.3554 24.1094 65.039 24.2852 64.8632 24.6016L62.8593 27.7656C61.8047 29.418 62.7187 31.7031 64.6875 31.9844C64.8281 31.9844 64.9687 31.9844 65.1093 31.9844C66.0234 31.9844 66.832 31.5977 67.3945 31C67.957 31.5977 68.7656 31.9844 69.6797 31.9844C70.5937 31.9844 71.4375 31.5977 71.9648 31C72.5273 31.5977 73.3711 31.9844 74.2851 31.9844C75.1992 31.9844 76.0078 31.5977 76.5703 31C77.1328 31.5977 77.9414 31.9844 78.8554 31.9844C78.9961 31.9844 79.1367 31.9844 79.2773 31.9844C81.2461 31.7031 82.1601 29.418 81.1054 27.7656Z" fill="#15076F"/>
<path d="M106.813 39.8594L95.5625 39.8594C95.2461 39.8594 95 40.1406 95 40.4219L95 41.5469C95 41.8633 95.2461 42.1094 95.5625 42.1094L106.813 42.1094C107.094 42.1094 107.375 41.8633 107.375 41.5469L107.375 40.4219C107.375 40.1406 107.094 39.8594 106.813 39.8594ZM112.332 27.9062L109.484 25.0586C109.273 24.8477 108.887 24.8477 108.676 25.0586L108.289 25.4453C108.078 25.6562 108.078 26.043 108.289 26.2539L109.625 27.5547L109.625 29.7344C109.625 30.7539 110.328 31.5625 111.313 31.7031L111.313 37.3281C111.313 37.8203 110.926 38.1719 110.469 38.1719C109.977 38.1719 109.625 37.8203 109.625 37.3281L109.625 36.2031C109.625 34.5156 108.219 33.1094 106.531 33.1094L106.25 33.1094L106.25 26.3594C106.25 25.1289 105.23 24.1094 104 24.1094L98.375 24.1094C97.1094 24.1094 96.125 25.1289 96.125 26.3594L96.125 38.7344L106.25 38.7344L106.25 34.7969L106.531 34.7969C107.305 34.7969 107.938 35.4297 107.938 36.2031L107.938 37.1875C107.938 38.5234 108.887 39.7187 110.188 39.8594C111.699 40 113 38.8398 113 37.3281L113 29.4883C113 28.8906 112.754 28.3281 112.332 27.9062ZM104 30.8594L98.375 30.8594L98.375 26.3594L104 26.3594L104 30.8594Z" fill="#15076F"/>
<path d="M130.375 36.4844L141.625 36.4844L141.625 29.7344L130.375 29.7344L130.375 36.4844ZM146.125 31.4219L146.125 28.0469C146.125 27.1328 145.352 26.3594 144.438 26.3594L127.562 26.3594C126.613 26.3594 125.875 27.1328 125.875 28.0469L125.875 31.4219C126.789 31.4219 127.563 32.1953 127.563 33.1094C127.563 34.0586 126.789 34.7969 125.875 34.7969L125.875 38.1719C125.875 39.1211 126.613 39.8594 127.563 39.8594L144.438 39.8594C145.352 39.8594 146.125 39.1211 146.125 38.1719L146.125 34.7969C145.176 34.7969 144.438 34.0586 144.438 33.1094C144.438 32.1953 145.176 31.4219 146.125 31.4219ZM142.75 36.7656C142.75 37.2578 142.363 37.6094 141.906 37.6094L130.094 37.6094C129.602 37.6094 129.25 37.2578 129.25 36.7656L129.25 29.4531C129.25 28.9961 129.602 28.6094 130.094 28.6094L141.906 28.6094C142.363 28.6094 142.75 28.9961 142.75 29.4531L142.75 36.7656Z" fill="#15076F"/>
<path d="M175.312 25.2344L160.688 25.2344C159.738 25.2344 159 26.0078 159 26.9219L159 39.2969C159 40.2461 159.738 40.9844 160.688 40.9844L175.313 40.9844C176.227 40.9844 177 40.2461 177 39.2969L177 26.9219C177 26.0078 176.227 25.2344 175.312 25.2344ZM162.938 38.4531C162.938 38.6289 162.797 38.7344 162.656 38.7344L160.969 38.7344C160.793 38.7344 160.688 38.6289 160.688 38.4531L160.688 36.7656C160.688 36.625 160.793 36.4844 160.969 36.4844L162.656 36.4844C162.797 36.4844 162.938 36.625 162.938 36.7656L162.938 38.4531ZM162.938 33.9531C162.938 34.1289 162.797 34.2344 162.656 34.2344L160.969 34.2344C160.793 34.2344 160.688 34.1289 160.688 33.9531L160.688 32.2656C160.688 32.125 160.793 31.9844 160.969 31.9844L162.656 31.9844C162.797 31.9844 162.938 32.125 162.938 32.2656L162.938 33.9531ZM162.938 29.4531C162.938 29.6289 162.797 29.7344 162.656 29.7344L160.969 29.7344C160.793 29.7344 160.688 29.6289 160.688 29.4531L160.688 27.7656C160.688 27.625 160.793 27.4844 160.969 27.4844L162.656 27.4844C162.797 27.4844 162.938 27.625 162.938 27.7656L162.938 29.4531ZM171.375 38.1719C171.375 38.4883 171.094 38.7344 170.813 38.7344L165.188 38.7344C164.871 38.7344 164.625 38.4883 164.625 38.1719L164.625 34.7969C164.625 34.5156 164.871 34.2344 165.188 34.2344L170.813 34.2344C171.094 34.2344 171.375 34.5156 171.375 34.7969L171.375 38.1719ZM171.375 31.4219C171.375 31.7383 171.094 31.9844 170.813 31.9844L165.188 31.9844C164.871 31.9844 164.625 31.7383 164.625 31.4219L164.625 28.0469C164.625 27.7656 164.871 27.4844 165.188 27.4844L170.813 27.4844C171.094 27.4844 171.375 27.7656 171.375 28.0469L171.375 31.4219ZM175.313 38.4531C175.313 38.6289 175.172 38.7344 175.031 38.7344L173.344 38.7344C173.168 38.7344 173.063 38.6289 173.063 38.4531L173.063 36.7656C173.063 36.625 173.168 36.4844 173.344 36.4844L175.031 36.4844C175.172 36.4844 175.313 36.625 175.313 36.7656L175.313 38.4531ZM175.313 33.9531C175.313 34.1289 175.172 34.2344 175.031 34.2344L173.344 34.2344C173.168 34.2344 173.063 34.1289 173.063 33.9531L173.063 32.2656C173.063 32.125 173.168 31.9844 173.344 31.9844L175.031 31.9844C175.172 31.9844 175.313 32.125 175.313 32.2656L175.313 33.9531ZM175.313 29.4531C175.313 29.6289 175.172 29.7344 175.031 29.7344L173.344 29.7344C173.168 29.7344 173.063 29.6289 173.063 29.4531L173.063 27.7656C173.063 27.625 173.168 27.4844 173.344 27.4844L175.031 27.4844C175.172 27.4844 175.313 27.625 175.313 27.7656L175.313 29.4531Z" fill="#15076F"/>
</svg>
