<svg width="65" height="63" viewBox="0 0 65 63" fill="none" xmlns="http://www.w3.org/2000/svg">
<path d="M61.1485 11.064H24.1032C22.4673 11.064 21.1411 12.3901 21.1411 14.0261V36.8802C21.1411 38.5163 22.4673 39.8427 24.1032 39.8427H61.1485C62.7845 39.8427 64.1106 38.5163 64.1106 36.8802V14.0261C64.1106 12.3901 62.7845 11.064 61.1485 11.064Z" fill="#FFD652"/>
<path d="M24.1032 11.064C22.4673 11.064 21.1411 12.3901 21.1411 14.0261V36.8802C21.1411 38.5163 22.4673 39.8427 24.1032 39.8427H40.2647V11.064H24.1032Z" fill="#FB9D46"/>
<path d="M29.161 31.5014H56.353C56.8983 31.5014 57.3444 31.0552 57.3444 30.5222V27.7584C57.3444 27.2131 56.8983 26.7793 56.353 26.7793H29.161C28.6157 26.7793 28.1819 27.2255 28.1819 27.7584V30.5222C28.1819 31.0552 28.6157 31.5014 29.161 31.5014Z" fill="white"/>
<path d="M40.266 26.7666H28.1819V31.5011H40.266V26.7666Z" fill="#E5E5E5"/>
<path d="M64.1107 18.624H22.1328V23.879H64.1107V18.624Z" fill="#5AC779"/>
<path d="M40.2652 18.624H22.1328V23.879H40.2652V18.624Z" fill="#00A085"/>
<path d="M56.2906 35.6408H43.6864C43.1411 35.6408 42.6946 35.1946 42.6946 34.6494C42.6946 34.1041 43.1411 33.658 43.6864 33.658H56.3031C56.8487 33.658 57.2949 34.1041 57.2949 34.6494C57.2949 35.1946 56.8363 35.6408 56.2906 35.6408Z" fill="#FB9D46"/>
<path d="M35.4069 4.75537H3.61667C1.98069 4.75537 0.654541 6.08151 0.654541 7.71752V60.0073C0.654541 61.6433 1.98069 62.9694 3.61667 62.9694H35.4069C37.0429 62.9694 38.3691 61.6433 38.3691 60.0073V7.71752C38.3567 6.08151 37.0305 4.75537 35.4069 4.75537Z" fill="#666666"/>
<path d="M4.00088 60.0073V7.71752C4.00088 6.08151 5.32702 4.75537 6.96302 4.75537H3.61667C1.98069 4.75537 0.654541 6.08151 0.654541 7.71752V60.0073C0.654541 61.6433 1.98069 62.9694 3.61667 62.9694H6.96302C5.32702 62.9569 4.00088 61.6309 4.00088 60.0073Z" fill="#4C4C4C"/>
<path d="M31.2052 38.8505H7.818C6.72735 38.8505 5.84741 37.9706 5.84741 36.8801V29.7907C5.84741 28.7 6.72735 27.8201 7.818 27.8201H31.2052C32.2959 27.8201 33.1759 28.7 33.1759 29.7907V36.8801C33.1759 37.9706 32.2835 38.8505 31.2052 38.8505Z" fill="#AFF078"/>
<path d="M31.2047 27.8206H30.2256L19.1951 38.851H23.7064L33.1258 29.4318C32.9646 28.5146 32.159 27.8206 31.2047 27.8206Z" fill="#F2F2F2"/>
<path d="M24.7607 27.8206L13.7302 38.851H17.4732L28.5037 27.8206H24.7607Z" fill="#F2F2F2"/>
<path d="M10.0504 50.6124C7.91865 50.6124 6.17114 48.8773 6.17114 46.7334C6.17114 44.6016 7.90629 42.854 10.0504 42.854C12.1945 42.854 13.9297 44.5891 13.9297 46.7334C13.9297 48.8773 12.1821 50.6124 10.0504 50.6124ZM10.0504 44.8372C8.99694 44.8372 8.14177 45.6921 8.14177 46.7455C8.14177 47.7993 8.99694 48.6542 10.0504 48.6542C11.1039 48.6542 11.9591 47.7993 11.9591 46.7455C11.9591 45.6921 11.1039 44.8372 10.0504 44.8372Z" fill="#4C4C4C"/>
<path d="M28.9618 50.6123C26.8301 50.6123 25.0825 48.8772 25.0825 46.7329C25.0825 44.6011 26.8177 42.8535 28.9618 42.8535C31.1059 42.8535 32.8411 44.5887 32.8411 46.7329C32.8411 48.8772 31.1059 50.6123 28.9618 50.6123ZM28.9618 44.8367C27.9083 44.8367 27.0532 45.692 27.0532 46.7454C27.0532 47.7988 27.9083 48.6541 28.9618 48.6541C30.0153 48.6541 30.8705 47.7988 30.8705 46.7454C30.8705 45.692 30.0153 44.8367 28.9618 44.8367Z" fill="#4C4C4C"/>
<path d="M19.5045 50.6123C17.3728 50.6123 15.6252 48.8772 15.6252 46.7329C15.6252 44.6011 17.3604 42.8535 19.5045 42.8535C21.6363 42.8535 23.3838 44.5887 23.3838 46.7329C23.3838 48.8772 21.6487 50.6123 19.5045 50.6123ZM19.5045 44.8367C18.451 44.8367 17.5959 45.692 17.5959 46.7454C17.5959 47.7988 18.451 48.6541 19.5045 48.6541C20.558 48.6541 21.4132 47.7988 21.4132 46.7454C21.4132 45.692 20.558 44.8367 19.5045 44.8367Z" fill="#4C4C4C"/>
<path d="M10.0485 59.5482C7.91674 59.5482 6.16919 57.8131 6.16919 55.6688C6.16919 53.537 7.90433 51.7898 10.0485 51.7898C12.1926 51.7898 13.9278 53.5249 13.9278 55.6688C13.9278 57.8131 12.1802 59.5482 10.0485 59.5482ZM10.0485 53.7601C8.99499 53.7601 8.13982 54.6154 8.13982 55.6688C8.13982 56.7222 8.99499 57.5775 10.0485 57.5775C11.102 57.5775 11.9571 56.7222 11.9571 55.6688C11.9571 54.6154 11.102 53.7601 10.0485 53.7601Z" fill="#4C4C4C"/>
<path d="M28.9618 59.5482C26.8301 59.5482 25.0825 57.8131 25.0825 55.6688C25.0825 53.537 26.8177 51.7898 28.9618 51.7898C31.1059 51.7898 32.8411 53.5249 32.8411 55.6688C32.8411 57.8131 31.1059 59.5482 28.9618 59.5482ZM28.9618 53.7601C27.9083 53.7601 27.0532 54.6154 27.0532 55.6688C27.0532 56.7222 27.9083 57.5775 28.9618 57.5775C30.0153 57.5775 30.8705 56.7222 30.8705 55.6688C30.8705 54.6154 30.0153 53.7601 28.9618 53.7601Z" fill="#4C4C4C"/>
<path d="M19.5045 59.5482C17.3728 59.5482 15.6252 57.8131 15.6252 55.6688C15.6252 53.537 17.3604 51.7898 19.5045 51.7898C21.6363 51.7898 23.3838 53.5249 23.3838 55.6688C23.3838 57.8131 21.6487 59.5482 19.5045 59.5482ZM19.5045 53.7601C18.451 53.7601 17.5959 54.6154 17.5959 55.6688C17.5959 56.7222 18.451 57.5775 19.5045 57.5775C20.558 57.5775 21.4132 56.7222 21.4132 55.6688C21.4132 54.6154 20.558 53.7601 19.5045 53.7601Z" fill="#4C4C4C"/>
<path d="M10.0491 49.6225C11.644 49.6225 12.9369 48.3298 12.9369 46.7349C12.9369 45.1401 11.644 43.8469 10.0491 43.8469C8.45428 43.8469 7.16138 45.1401 7.16138 46.7349C7.16138 48.3298 8.45428 49.6225 10.0491 49.6225Z" fill="#B2B2B2"/>
<path d="M28.9613 49.6213C30.5561 49.6213 31.849 48.3282 31.849 46.7333C31.849 45.1385 30.5561 43.8457 28.9613 43.8457C27.3664 43.8457 26.0735 45.1385 26.0735 46.7333C26.0735 48.3282 27.3664 49.6213 28.9613 49.6213Z" fill="#B2B2B2"/>
<path d="M19.504 49.6213C21.0989 49.6213 22.3918 48.3282 22.3918 46.7333C22.3918 45.1385 21.0989 43.8457 19.504 43.8457C17.9091 43.8457 16.6162 45.1385 16.6162 46.7333C16.6162 48.3282 17.9091 49.6213 19.504 49.6213Z" fill="#B2B2B2"/>
<path d="M10.0491 58.5571C11.644 58.5571 12.9369 57.2644 12.9369 55.6695C12.9369 54.0746 11.644 52.7815 10.0491 52.7815C8.45428 52.7815 7.16138 54.0746 7.16138 55.6695C7.16138 57.2644 8.45428 58.5571 10.0491 58.5571Z" fill="#FF7452"/>
<path d="M28.9624 58.5571C30.5573 58.5571 31.8502 57.2644 31.8502 55.6695C31.8502 54.0746 30.5573 52.7815 28.9624 52.7815C27.3676 52.7815 26.0747 54.0746 26.0747 55.6695C26.0747 57.2644 27.3676 58.5571 28.9624 58.5571Z" fill="#5AC779"/>
<path d="M19.5052 58.5571C21.1001 58.5571 22.393 57.2644 22.393 55.6695C22.393 54.0746 21.1001 52.7815 19.5052 52.7815C17.9103 52.7815 16.6174 54.0746 16.6174 55.6695C16.6174 57.2644 17.9103 58.5571 19.5052 58.5571Z" fill="#FFD652"/>
<path d="M29.3584 0.293457H9.65214C8.02854 0.293457 6.70239 1.6196 6.70239 3.2556V24.3376H32.3205V3.2556C32.3205 1.6196 30.9944 0.293457 29.3584 0.293457Z" fill="#F2F2F2"/>
<path d="M13.4695 0.293457H9.65214C8.02854 0.293457 6.70239 1.6196 6.70239 3.2556V24.3376H28.8007L13.4695 0.293457Z" fill="#E5E5E5"/>
<path d="M33.6967 24.5979H5.31475C4.76942 24.5979 4.32324 24.1517 4.32324 23.6188C4.32324 23.0858 4.76942 22.6396 5.31475 22.6396H33.6967C34.242 22.6396 34.6882 23.0858 34.6882 23.6188C34.6882 24.1517 34.242 24.5979 33.6967 24.5979Z" fill="#4C4C4C"/>
<path d="M20.5586 6.72595H13.1966C12.6513 6.72595 12.2175 6.27978 12.2175 5.73444C12.2175 5.18913 12.6637 4.74292 13.1966 4.74292H20.5586C21.1039 4.74292 21.5377 5.18913 21.5377 5.73444C21.5377 6.27978 21.1039 6.72595 20.5586 6.72595Z" fill="#999999"/>
<path d="M25.8146 13.0342H13.1976C12.6523 13.0342 12.2185 12.588 12.2185 12.055C12.2185 11.5097 12.6647 11.0759 13.1976 11.0759H25.8146C26.3599 11.0759 26.7937 11.5221 26.7937 12.055C26.7937 12.6004 26.3599 13.0342 25.8146 13.0342Z" fill="#999999"/>
<path d="M25.8146 19.603H13.1976C12.6523 19.603 12.2185 19.1568 12.2185 18.6239C12.2185 18.0786 12.6647 17.6448 13.1976 17.6448H25.8146C26.3599 17.6448 26.7937 18.091 26.7937 18.6239C26.7937 19.1692 26.3599 19.603 25.8146 19.603Z" fill="#999999"/>
</svg>
