<svg width="43" height="57" viewBox="0 0 43 57" fill="none" xmlns="http://www.w3.org/2000/svg">
<path d="M34.9361 56.3055C26.0109 57.2314 17.0858 57.2314 8.16051 56.3055C4.61203 55.9372 1.84871 53.0532 1.62768 49.4925C0.770265 35.6745 0.770265 21.8566 1.62768 8.03874C1.84871 4.47811 4.61203 1.5938 8.16051 1.22567C17.0858 0.299777 26.0109 0.299777 34.9364 1.22567C38.4848 1.5938 41.2482 4.47801 41.4692 8.03874C42.3266 21.8567 42.3266 35.6745 41.4692 49.4925C41.2482 53.0532 38.4848 55.9372 34.9361 56.3055Z" fill="#80B4FB"/>
<path d="M9.18573 56.4075C8.84373 56.3747 8.50173 56.3405 8.1597 56.3051C4.61135 55.9372 1.84814 53.0525 1.62775 49.4915C0.769916 35.6744 0.769916 21.8559 1.62775 8.03877C1.84823 4.47794 4.61145 1.59321 8.15983 1.22505C8.50183 1.18985 8.84383 1.15579 9.18586 1.1228C6.99747 2.35101 5.4909 4.62903 5.32723 7.26498C4.43764 21.598 4.43764 35.9322 5.32723 50.2653C5.4909 52.9014 6.99747 55.1793 9.18573 56.4075Z" fill="#61A2F9"/>
<path d="M37.2134 16.8231C36.9758 19.0284 35.1669 20.7316 32.9504 20.8225C30.2441 20.9326 27.5375 21.0031 24.8312 21.0339C21.2703 21.077 17.7108 21.0509 14.1499 20.9555C12.8161 20.9214 11.481 20.8771 10.1471 20.8226C7.9304 20.7317 6.12044 19.0285 5.883 16.8232C5.82849 16.3188 5.78637 15.8154 5.75569 15.312C5.64211 13.4794 5.68523 11.6467 5.883 9.81407C6.12044 7.60748 7.9304 5.90438 10.1471 5.81462C11.9037 5.74302 13.6602 5.68855 15.4179 5.64984C20.082 5.54649 24.7471 5.56128 29.4124 5.69417C30.5915 5.72593 31.771 5.76684 32.9504 5.81462C34.8354 5.8907 36.4237 7.13366 37.0054 8.85961V8.86081C37.1078 9.16423 37.1783 9.48341 37.2134 9.81407C37.4656 12.1499 37.4656 14.486 37.2134 16.8231Z" fill="#D3EFFB"/>
<path d="M29.4123 5.69417L14.1498 20.9555C12.8159 20.9214 11.4809 20.8771 10.147 20.8226C7.93032 20.7317 6.12033 19.0285 5.88289 16.8232C5.82838 16.3188 5.78626 15.8154 5.75562 15.312L15.4178 5.64984C20.0818 5.54649 24.7469 5.56128 29.4123 5.69417Z" fill="#ECF9F9"/>
<path d="M37.2138 16.8233C36.9762 19.0285 35.1673 20.7317 32.9508 20.8226C30.2442 20.9328 27.5379 21.0033 24.8313 21.034L37.0058 8.86084C37.1079 9.16426 37.1784 9.48344 37.2138 9.8141C37.466 12.15 37.466 14.4861 37.2138 16.8233Z" fill="#ECF9F9"/>
<path d="M21.5489 21.9052C17.7277 21.9052 13.9067 21.828 10.1125 21.6734C7.4566 21.5653 5.32152 19.5636 5.03607 16.9139C4.77899 14.5279 4.77899 12.1083 5.03607 9.72231C5.32161 7.07255 7.4566 5.07091 10.1126 4.96281C17.7009 4.65367 25.3966 4.65367 32.985 4.96281C35.6409 5.07091 37.7758 7.07255 38.0615 9.72231C38.3186 12.1083 38.3186 14.5279 38.0615 16.9139C37.7758 19.5636 35.6409 21.5653 32.985 21.6734C29.1906 21.828 25.3696 21.9052 21.5489 21.9052ZM21.5489 6.43532C17.7509 6.43532 13.9532 6.51205 10.182 6.66571C8.37632 6.73916 6.9248 8.10147 6.73058 9.90483C6.48651 12.1698 6.48651 14.4664 6.73058 16.7313C6.9249 18.5347 8.37645 19.8969 10.1819 19.9705C17.7244 20.2776 25.3732 20.2776 32.9154 19.9705C34.7211 19.8969 36.1726 18.5346 36.3669 16.7313C36.611 14.4663 36.611 12.1696 36.3669 9.90483C36.1726 8.10137 34.7211 6.73903 32.9158 6.66558C32.9158 6.66558 32.9158 6.66558 32.9154 6.66558C29.1445 6.51205 25.3465 6.43532 21.5489 6.43532Z" fill="#61A2F9"/>
<path d="M33.047 25.3841C25.3812 24.8323 17.7153 24.8323 10.0495 25.3841C7.98564 25.5326 6.32135 27.1446 6.12911 29.2051C5.54908 35.4204 5.54908 41.6357 6.12911 47.8514C6.32135 49.9115 7.98564 51.5235 10.0495 51.6721C17.7155 52.2239 25.3812 52.2239 33.047 51.6721C35.1111 51.5235 36.7754 49.9115 36.9675 47.8514C37.5476 41.6361 37.5476 35.4204 36.9675 29.2051C36.7754 27.1446 35.1111 25.5326 33.047 25.3841Z" fill="#407093"/>
<path d="M37.8161 29.1258C37.5847 26.6447 35.6048 24.7136 33.1084 24.5339C25.4378 23.9819 17.6592 23.9819 9.9885 24.5339C7.49217 24.7136 5.51224 26.6447 5.28075 29.1258C4.69841 35.3645 4.69841 41.6913 5.28075 47.93C5.51237 50.411 7.49217 52.3422 9.9885 52.5219C13.8239 52.7978 17.6861 52.9359 21.5485 52.9359C25.4108 52.9359 29.2731 52.7978 33.1084 52.5219C35.6048 52.3422 37.5847 50.411 37.8161 47.93C38.3985 41.6913 38.3985 35.3645 37.8161 29.1258ZM36.1192 29.2841C36.2369 30.5441 36.3289 31.808 36.3981 33.0739C33.6379 33.006 30.8539 32.9572 28.0934 32.928C28.0579 30.5993 27.9994 28.2623 27.9188 25.9525C29.6114 26.0201 31.3014 26.1127 32.9862 26.2339C34.648 26.3532 35.9655 27.6363 36.1192 29.2841ZM6.61978 34.7805C9.39811 34.7116 12.2016 34.6622 14.9821 34.6323C14.9541 37.2228 14.9541 39.8339 14.9821 42.4232C12.2018 42.3936 9.39824 42.3439 6.61978 42.275C6.52605 39.7786 6.52605 37.2768 6.61978 34.7805ZM16.6867 42.4391C16.6583 39.8394 16.6583 37.2173 16.6867 34.6163C19.9178 34.5894 23.179 34.5894 26.4108 34.6163C26.4394 37.217 26.4394 39.8391 26.4108 42.4391C23.1797 42.4661 19.9186 42.4661 16.6867 42.4391ZM28.1155 34.6323C30.8952 34.6622 33.6986 34.7116 36.4771 34.7805C36.5707 37.2768 36.5707 39.7786 36.4771 42.275C33.699 42.3439 30.8958 42.3936 28.1155 42.4232C28.1434 39.8336 28.1434 37.2225 28.1155 34.6323ZM26.2113 25.893C26.2932 28.2161 26.3527 30.5681 26.3887 32.912C23.1716 32.8851 19.9254 32.8851 16.7088 32.912C16.7449 30.5685 16.8043 28.2161 16.8863 25.893C18.4391 25.8478 19.9937 25.8241 21.5485 25.8241C23.1033 25.8241 24.6581 25.8478 26.2113 25.893ZM6.97767 29.2841C7.13143 27.636 8.44907 26.3532 10.1107 26.2339C11.7955 26.1124 13.4858 26.0198 15.1787 25.9525C15.0981 28.2623 15.0396 30.5993 15.0041 32.9276C12.2431 32.9569 9.45901 33.006 6.69866 33.0736C6.76801 31.808 6.86012 30.5441 6.97767 29.2841ZM6.97767 47.7717C6.86012 46.5117 6.76801 45.2477 6.69866 43.9819C9.45921 44.0495 12.2433 44.0985 15.0041 44.1278C15.0396 46.4571 15.0981 48.7945 15.1787 51.1033C13.4858 51.036 11.7955 50.943 10.1107 50.8218C8.44907 50.7022 7.13152 49.4194 6.97767 47.7717ZM16.8863 51.1624C16.8043 48.84 16.745 46.4879 16.7088 44.1434C18.3173 44.157 19.9322 44.1652 21.5488 44.1652C23.1654 44.1652 24.7803 44.157 26.3887 44.1434C26.3527 46.4879 26.2932 48.84 26.2113 51.1624C23.1053 51.2531 19.9923 51.2531 16.8863 51.1624ZM36.1192 47.7717C35.9655 49.4194 34.648 50.7022 32.9862 50.8218C31.3018 50.9434 29.6114 51.036 27.9188 51.1033C27.9994 48.7941 28.0579 46.4571 28.0937 44.1278C30.8542 44.0985 33.6382 44.0495 36.3984 43.9819C36.3289 45.2477 36.2369 46.5117 36.1192 47.7717Z" fill="#365E7D"/>
</svg>
