<svg width="200" height="111" viewBox="0 0 200 111" fill="none" xmlns="http://www.w3.org/2000/svg">
<path d="M73.9707 110.083C50.1432 108.148 29.0988 99.9381 15.411 87.2226C7.59869 79.9804 2.86249 72.1182 0.730381 62.85C-0.246156 58.6317 -0.246156 51.6465 0.746657 47.3828C3.7251 34.501 12.6767 23.237 26.7877 14.634C58.9646 -4.96084 108.263 -4.87012 140.147 14.8608C144.379 17.4765 147.113 19.563 150.954 23.0707C155.788 27.5007 159.19 31.9156 162.77 38.3867C162.901 38.6286 163.568 38.931 164.235 39.052C166.498 39.4904 169.509 41.1233 171.934 43.2249C173.822 44.8578 175.27 46.6419 178.867 51.6918C182.497 56.7871 198.902 80.313 199.895 81.8552C200.286 82.46 199.521 83.4125 198.658 83.4125C198.04 83.4125 197.617 83.0345 196.705 81.704C196.07 80.7666 191.888 74.7339 187.412 68.293C171.576 45.5231 170.729 44.4647 166.319 42.4085L164.007 41.335H157.204C150.401 41.335 150.401 41.335 150.238 42.0003C149.343 45.644 149.164 46.5361 149.359 46.7024C149.49 46.8082 153.347 48.8494 157.937 51.2382L166.286 55.5775L165.765 56.5905C165.472 57.15 165.147 57.6035 165.033 57.6035C164.919 57.6035 157.888 53.99 149.408 49.56C140.929 45.1451 133.491 41.3955 132.888 41.2443C130.48 40.6244 126.769 43.104 126.769 45.3417C126.769 47.6096 127.485 48.2597 142.393 59.5993C151.687 66.6752 157.009 70.9238 157.823 71.9217C159.304 73.7511 160.801 76.4424 162.168 79.7536C164.593 85.5897 168.532 88.8404 174.993 90.3523L177.126 90.8513L176.947 91.9248C176.849 92.5144 176.719 93.0587 176.637 93.1343C176.361 93.4216 172.08 92.1515 169.606 91.0478C165.733 89.3242 163.063 86.8597 160.443 82.5658C160.427 82.5356 158.897 83.0194 157.074 83.6393C153.819 84.743 153.656 84.8337 150.58 87.6308C137.446 99.545 118.598 107.15 95.8614 109.735C92.1343 110.219 77.9094 110.416 73.9707 110.083ZM96.6101 106.424C107.043 105.139 115.148 103.219 123.611 99.9986C132.498 96.6118 140.896 91.7584 146.755 86.5876L149.066 84.5464L143.24 81.961C137.022 79.1942 136.404 78.7406 135.606 76.2761C135.102 74.7188 135.672 73.0556 137.267 71.4681L138.504 70.2132L135.802 68.3081C133.67 66.7962 133.002 66.146 132.579 65.1482C131.912 63.5304 132.156 61.7765 133.23 60.3704L134.044 59.2969L125.516 57.9059C120.828 57.1348 116.45 56.3638 115.799 56.1823C114.513 55.8346 113.227 54.4738 112.886 53.1584C112.707 52.4478 116.889 33.488 117.817 30.7816C118.24 29.572 120.014 28.1055 121.365 27.8787C122.781 27.6367 147.911 31.7341 149.164 32.4145C151.15 33.488 151.768 35.2116 151.15 37.8726L150.889 38.9764H152.273C153.038 38.9764 154.844 38.8856 156.293 38.7798L158.929 38.5832L157.627 36.3304C153.705 29.5418 146.56 22.6776 137.755 17.2346C133.637 14.6945 124.865 10.6727 119.575 8.91884C112.056 6.42413 102.958 4.54931 94.2176 3.70262C89.4162 3.23392 76.8677 3.24904 72.2129 3.71774C61.0641 4.83658 50.9407 7.1801 42.0867 10.6878C21.5795 18.807 7.794 32.2633 4.26219 47.5945C3.33448 51.6011 3.26938 58.6166 4.11571 62.2603C5.98741 70.319 10.0563 77.2891 16.6805 83.7754C30.1893 96.9898 50.8267 105.124 75.5657 106.954C78.8859 107.195 93.241 106.833 96.6101 106.424ZM92.1017 92.0003C90.8322 91.6526 89.5302 90.2465 89.2535 88.9009C89.0745 88.0239 89.286 87.4191 90.6369 84.9849C96.1055 75.1573 98.4818 66.1158 98.4818 55.1542C98.4818 44.5554 96.3822 36.3002 91.1577 26.4121C90.0347 24.2953 89.1233 22.3147 89.1233 22.0274C89.1233 20.9691 90.0673 19.442 91.0926 18.8523C92.4923 18.0359 94.8523 18.1871 95.9916 19.1698C96.431 19.5478 97.5541 21.2715 98.498 22.9951C102.241 29.814 104.797 37.2981 106.066 45.0846C106.847 49.9077 107.01 59.0399 106.375 63.4548C105.22 71.5891 102.909 78.8615 99.1979 85.9677C96.9519 90.2616 95.5522 92.0306 94.3803 92.0306C94.1525 92.0306 93.7618 92.0911 93.534 92.1515C93.3061 92.212 92.6551 92.1515 92.1017 92.0003ZM76.884 84.6069C74.9309 84.0777 73.515 81.8401 74.0846 80.1769C74.2148 79.7687 75.1425 77.909 76.1353 76.0342C80.3182 68.0965 82.0597 59.5993 81.2133 51.2534C80.5135 44.3891 79.1952 40.065 75.8587 33.745C73.6289 29.4964 73.515 28.8463 74.817 27.1227C76.054 25.4898 79.1463 25.2328 80.7576 26.6086C81.8806 27.5612 85.3799 34.3498 86.7308 38.1901C91.1903 50.8905 90.5067 64.5434 84.794 77.0169C81.8481 83.4125 79.7811 85.3931 76.884 84.6069ZM61.1943 77.1077C59.9899 76.6087 58.9483 75.4143 58.6553 74.2198C58.4763 73.4941 58.7855 72.6777 60.2178 69.9864C65.4911 60.068 65.5399 50.5276 60.3968 40.836C58.1345 36.5875 58.0857 35.7408 59.9899 34.0625C60.9339 33.231 61.3408 33.0949 62.6591 33.0949C64.8889 33.0949 66.0444 34.1381 68.0301 37.9331C71.0899 43.7692 72.3431 48.8343 72.3268 55.3205C72.3106 61.9882 71.1387 66.5694 67.8836 72.723C66.0119 76.2459 65.0842 77.1833 63.2125 77.4101C62.6428 77.4554 61.7314 77.3345 61.1943 77.1077ZM46.5463 70.1225C45.586 69.7596 44.4955 68.55 44.17 67.4917C43.812 66.3124 44.1049 65.375 45.5372 63.1826C47.3926 60.3553 47.8158 58.8433 47.8158 55.1542C47.8158 51.465 47.3926 49.938 45.5372 47.1258C44.9024 46.1732 44.2839 45.0241 44.1375 44.5706C43.5353 42.7109 45.2117 40.4278 47.4577 40.0347C49.3619 39.7021 50.664 40.4883 52.4218 43.0284C57.4835 50.3764 57.4835 60.1739 52.4218 67.4614C50.6314 70.0166 48.6458 70.9238 46.5463 70.1225ZM155.642 81.5226C157.334 80.9631 158.799 80.434 158.897 80.3432C158.995 80.2525 158.669 79.2546 158.164 78.1056C157.155 75.762 157.318 75.8225 153.705 76.4575C149.815 77.153 147.553 76.5331 143.289 73.6151C142.133 72.8137 140.929 72.1636 140.636 72.1636C140.326 72.1636 139.675 72.5718 139.155 73.0859C138.064 74.1745 137.901 75.8679 138.78 76.8809C139.561 77.7578 150.255 82.4902 151.524 82.5204C152.094 82.5356 153.933 82.082 155.642 81.5226ZM153.949 73.9175C155.528 73.6151 155.707 73.5244 155.43 73.0405C155.121 72.5114 140.326 61.1113 139.041 60.4007C137.983 59.8261 137.12 59.9622 136.241 60.8391C133.67 63.3943 133.979 63.9386 140.636 68.671C148.676 74.4013 149.538 74.7339 153.949 73.9175ZM134.093 56.6359C134.093 56.5603 132.416 55.2147 130.366 53.6574C125.304 49.7868 124.214 48.3353 124.214 45.4626C124.214 43.0737 125.939 40.7605 128.706 39.4299C130.073 38.7647 132.53 38.5681 133.914 38.9915C134.89 39.2939 139.317 41.5164 145.437 44.7822L146.723 45.4777L147.781 40.7907C148.871 35.9978 148.887 34.7278 147.878 34.4405C147.569 34.3498 141.661 33.3519 134.76 32.2179C122.488 30.2071 121.137 30.0861 120.568 30.9479C120.259 31.4015 115.587 51.5104 115.587 52.3571C115.587 52.7804 115.815 53.3096 116.108 53.5364C116.385 53.7632 120.372 54.5645 124.962 55.3205C133.816 56.8022 134.093 56.8476 134.093 56.6359Z" fill="black"/>
</svg>
